<svg xmlns="http://www.w3.org/2000/svg" width="142" height="135" viewBox="0 0 142 135"><g transform="translate(-332.667 -1014)"><rect width="142" height="135" transform="translate(332.667 1014)" fill="#5bc799"/><g transform="translate(116.667 -252.742)"><rect width="95" height="95" transform="translate(240 1286.742)" fill="none"/><g transform="translate(255.254 1299.69)"><path d="M594.222-393.73c.045,2.269.045,2.269-2.186,2.269H550.462c-2.2,0-2.281-.084-2.282-2.263,0-2.446-.005-4.891,0-7.337,0-1.7.224-2.018,1.9-1.88,1.416.116,1.576-.46,1.573-1.672q-.055-24.025-.023-48.049c0-5.2,2.688-7.888,7.877-7.89q11.8,0,23.592,0c4.736,0,7.367,2.462,7.657,7.224.044.729.288.862.93.847,1.582-.037,3.171.081,4.745-.036a4.812,4.812,0,0,1,4.549,1.894,3.876,3.876,0,0,0,3.845,1.612c1.28-.137,2.587,0,3.881-.036,1.145-.035,1.7.432,1.657,1.61-.036.958.019,1.919-.012,2.877-.06,1.863-.209,3.686,1.6,5.021.739.546.716,1.612.715,2.547q-.016,17.767-.012,35.534a9.751,9.751,0,0,1-6.891,9.556,9.75,9.75,0,0,1-11-3.882c-.137-.193-.294-.372-.441-.559a12,12,0,0,1-1.292-5.49q.028-8.47.05-16.94a1.911,1.911,0,0,0-.144-.833c-.335-.673-.98-.646-1.618-.65-.744-.005-.53.537-.529.909q.01,8.757.046,17.515c-.227,1.118-1.045,1.18-1.973,1.176-5.222-.021-10.445-.015-15.666-.016-7.139,0-14.277.027-21.415-.029-1.1-.009-1.394.284-1.322,1.348a35.707,35.707,0,0,1,0,4.309c-.051.951.147,1.321,1.216,1.3,4.311-.067,8.624-.031,12.935-.027Q579.419-393.752,594.222-393.73Zm-3.154-56.4q-.289-.065-.226.224v1.736q-.065.289.224.226H592.8q.289.065.226-.225v-1.736q.065-.289-.224-.226Zm-2.651,7.711c.017-3.785.093-7.571.031-11.354a4.471,4.471,0,0,0-4.673-4.459q-12.58-.041-25.16,0a4.524,4.524,0,0,0-4.663,4.629c-.042,1.676-.014,3.355-.011,5.032q.022,15.742.047,31.485c-.016,4.263.007,8.526-.074,12.788-.02,1.093.3,1.346,1.361,1.342q15.953-.061,31.905,0c1.127.005,1.322-.357,1.318-1.384-.036-10.2-.018-20.409-.025-30.613C588.473-437.442,588.438-439.931,588.418-442.421Zm17.336,28.774c0-4.123-.034-8.247.024-12.37.014-.974-.29-1.211-1.2-1.163-1.387.073-2.78.028-4.17.017-3.143-.025-4.992-1.873-5.007-5.022-.015-3.308,0-6.616-.006-9.924,0-3.676,0-3.654-3.738-3.494-.687.029-.887.208-.884.895q.038,8.343,0,16.685c0,.7.217.848.892.885,5.335.289,8.325,3.453,8.333,8.768.008,5.514,0,11.027,0,16.541,0,2.113,1.074,3.414,2.815,3.452,1.788.039,2.935-1.306,2.938-3.474Q605.762-407.749,605.754-413.647Zm4.6,3.066c0-3.213-.033-6.427.02-9.64.016-.967-.321-1.184-1.237-1.212-1.123-.036-1.086.582-1.084,1.354q.017,9.28.006,18.561a5.089,5.089,0,0,1-2.413,4.62,4.913,4.913,0,0,1-5.321.135A5,5,0,0,1,597.7-401.4c-.015-5.851.013-11.7-.018-17.553a5.725,5.725,0,0,0-5.909-5.9c-.762.032-1.038.284-.968,1.016.056.582-.19,1.2.836,1.3,2.8.27,3.753,1.4,3.755,4.2,0,5.611-.012,11.223.009,16.834a7.478,7.478,0,0,0,7.4,7.736,7.478,7.478,0,0,0,7.547-7.738C610.367-404.537,610.353-407.559,610.355-410.58Zm0-20.362c0-2.014-.017-4.029.009-6.043a1.814,1.814,0,0,0-.661-1.658,4.164,4.164,0,0,1-1.661-4.275,16.437,16.437,0,0,0,.011-1.869c0-1.947-.011-2.078-1.995-1.916-2.927.24-5.5-.146-7.254-2.836-.567-.869-1.528-.609-2.374-.655-.657-.035-1.151.042-1.042.894.082.638-.322,1.519.946,1.429.953-.068,1.37.523,1.363,1.451-.008,1.151,0,2.3,0,3.453,0,1.986.021,2.162,1.957,1.946,3.1-.347,5.6.389,7.494,3.007a3.6,3.6,0,0,1,.927,2.285c-.046,3.644.013,7.29-.04,10.934-.013.921.3,1.131,1.151,1.112.792-.017,1.227-.093,1.191-1.073C610.3-426.815,610.356-428.88,610.355-430.942Zm-7.833,1.48c.814,0,1.63-.045,2.44.011,1.112.077.735-.72.787-1.258.058-.6.084-1.134-.832-1.075-1.144.073-2.3.007-3.445.02-1.016.012-1.49-.471-1.48-1.488.014-1.531-.052-3.065.016-4.594.042-.933-.506-.851-1.091-.821-.57.029-1.292-.251-1.228.83.071,1.192.008,2.392.008,3.588C597.7-429.539,597.773-429.462,602.522-429.462Zm1.205-4.6c1.941,0,2.7-.933,1.864-2.142a19.015,19.015,0,0,0-2.081-2.146.9.9,0,0,0-.895-.307c-.56.14-.288.621-.309.948-.043.663.056,1.339-.027,1.994C602.113-434.4,602.454-433.676,603.728-434.064Z" transform="translate(-548.177 460.557)" fill="#030304"/><path d="M602.6-397.6c.02,2.49.055,4.979.057,7.469.007,10.2-.012,20.409.025,30.613,0,1.027-.191,1.389-1.318,1.384q-15.953-.07-31.905,0c-1.063,0-1.382-.249-1.361-1.342.081-4.262.058-8.525.074-12.788a4.311,4.311,0,0,0,.989-.111,89.788,89.788,0,0,0,11.189-5.163,5.282,5.282,0,0,1,2.459-1.055c-1.044,2.3-2.113,4.6-3.128,6.914a6.245,6.245,0,0,0,2.717,8.148,6.247,6.247,0,0,0,7.211-.85,6.214,6.214,0,0,0,1.521-7.217c-1.427-3.235-2.934-6.434-4.407-9.649.562-1.2,1.8-1.669,2.69-2.519,1.465-1.4,3.378-2.352,4.326-4.279,1.332-.016,2.665-.044,4-.044a1.3,1.3,0,0,0,1.482-1.485c0-1.523.028-3.046.043-4.568.6-.052.8-.579,1.169-.933C601.233-395.849,601.415-397.157,602.6-397.6Z" transform="translate(-562.357 415.731)" fill="#3085cb"/><path d="M582.844-417.729a5.282,5.282,0,0,0-2.459,1.055,89.792,89.792,0,0,1-11.189,5.163,4.308,4.308,0,0,1-.989.111q-.024-15.743-.047-31.485c0-1.678-.031-3.356.011-5.032a4.524,4.524,0,0,1,4.663-4.629q12.58-.046,25.16,0a4.471,4.471,0,0,1,4.673,4.459c.062,3.784-.014,7.57-.031,11.354-1.182.438-1.364,1.746-2.172,2.522-.369.354-.565.881-1.169.933q-.023-6.322-.047-12.643c-.007-1.849-.194-2.036-2.085-2.037q-11.783,0-23.567,0c-1.772,0-1.985.216-1.987,1.987q-.006,8.263,0,16.526c0,2.072.142,2.212,2.193,2.217l19.971.047c-.947,1.927-2.861,2.876-4.326,4.279-.887.85-2.128,1.322-2.69,2.518-1.129-1.551-1.861-1.482-2.706.247C583.659-419.33,583.248-418.532,582.844-417.729Z" transform="translate(-562.397 454.869)" fill="#338ed7"/><path d="M715.681-322.353c0,3.022.013,6.043,0,9.064a7.478,7.478,0,0,1-7.547,7.738,7.478,7.478,0,0,1-7.4-7.736c-.021-5.611,0-11.223-.009-16.834,0-2.8-.955-3.927-3.755-4.2-1.026-.1-.78-.714-.836-1.3-.071-.732.205-.983.968-1.016a5.725,5.725,0,0,1,5.909,5.9c.031,5.851,0,11.7.018,17.553a5,5,0,0,0,2.631,4.637,4.913,4.913,0,0,0,5.321-.135,5.089,5.089,0,0,0,2.413-4.62q0-9.28-.006-18.561c0-.773-.039-1.39,1.084-1.354.916.029,1.254.245,1.237,1.212C715.649-328.78,715.682-325.566,715.681-322.353Z" transform="translate(-653.504 372.329)" fill="#4b5b75"/><path d="M727.012-405.343c0,2.062-.053,4.126.024,6.186.036.98-.4,1.056-1.191,1.073-.854.019-1.165-.192-1.151-1.112.053-3.644-.005-7.29.04-10.934a3.6,3.6,0,0,0-.927-2.285c-1.9-2.617-4.393-3.353-7.494-3.007-1.935.216-1.955.04-1.957-1.946,0-1.151-.011-2.3,0-3.453.007-.928-.41-1.519-1.363-1.451-1.267.091-.864-.791-.946-1.429-.109-.853.385-.929,1.042-.894.845.046,1.807-.214,2.374.655,1.753,2.69,4.326,3.076,7.254,2.836,1.984-.162,1.994-.031,2,1.916a16.438,16.438,0,0,1-.011,1.869,4.164,4.164,0,0,0,1.661,4.275,1.814,1.814,0,0,1,.66,1.658C726.995-409.372,727.011-407.358,727.012-405.343Z" transform="translate(-664.833 434.958)" fill="#338dd6"/><path d="M602.321-415.793l-19.971-.047c-2.051,0-2.193-.145-2.193-2.217q0-8.263,0-16.526c0-1.771.215-1.986,1.987-1.987q11.783-.006,23.567,0c1.891,0,2.077.188,2.085,2.037q.025,6.321.047,12.643c-.016,1.523-.043,3.045-.043,4.568a1.3,1.3,0,0,1-1.482,1.485C604.985-415.837,603.653-415.809,602.321-415.793Zm-8.377-2.354c3.5,0,7-.021,10.495.016.789.008,1.077-.18,1.069-1.026q-.061-7.044-.006-14.09c.007-.843-.279-1.03-1.07-1.027q-10.423.041-20.846,0c-.866,0-1.148.2-1.139,1.109q.067,6.972-.006,13.945c-.01.932.31,1.1,1.152,1.093C587.042-418.171,590.493-418.147,593.943-418.147Z" transform="translate(-570.944 443.482)" fill="#010203"/><path d="M610.02-340.921c.4-.8.815-1.6,1.209-2.407.845-1.729,1.576-1.8,2.706-.247,1.472,3.215,2.98,6.414,4.407,9.649a6.214,6.214,0,0,1-1.521,7.217,6.247,6.247,0,0,1-7.211.85,6.245,6.245,0,0,1-2.717-8.148C607.907-336.324,608.975-338.617,610.02-340.921Zm5.494,6.563-2.9-6.474c-1.347,2.913-2.59,5.48-3.721,8.1a3.3,3.3,0,0,0,.532,3.622,3.823,3.823,0,0,0,4.886,1.329,3.955,3.955,0,0,0,2.136-4.521A5.671,5.671,0,0,0,615.514-334.358Z" transform="translate(-589.572 378.061)" fill="#040505"/><path d="M599.592-412.47c-3.45,0-6.9-.025-10.351.018-.842.01-1.163-.161-1.152-1.093q.077-6.972.006-13.945c-.009-.907.273-1.113,1.139-1.109q10.423.05,20.846,0c.79,0,1.076.184,1.07,1.027q-.054,7.045.006,14.09c.007.846-.28,1.035-1.069,1.026C606.589-412.492,603.091-412.47,599.592-412.47Zm-6.932-9.186c-1.1-.275-1.075.408-1.126,1.211-.06.946.327,1.083,1.158,1.1.936.022,1.213-.25,1.215-1.2C593.91-421.52,593.6-421.864,592.66-421.657Zm4.74,0c-.908-.191-1.291.079-1.269,1.094.019.912.22,1.264,1.194,1.218.795-.037,1.257-.1,1.177-1.081C598.438-421.2,598.538-421.94,597.4-421.657Zm4.4.017c-1.192-.438-.961.457-1.041,1.194-.1.946.317,1.083,1.149,1.1.936.022,1.213-.25,1.215-1.2C603.121-421.52,602.81-421.864,601.8-421.64Zm5.865,1.125c.234-1-.234-1.209-1.151-1.2-.834.01-1.206.157-1.162,1.1.038.83.08,1.329,1.14,1.271C607.354-419.388,607.913-419.479,607.661-420.516Z" transform="translate(-576.593 437.805)" fill="#4cb5e2"/><path d="M615.023-319.591a3.3,3.3,0,0,1-.532-3.622c1.131-2.616,2.374-5.184,3.721-8.1l2.9,6.474A19.436,19.436,0,0,1,615.023-319.591Z" transform="translate(-595.166 368.538)" fill="#f8b12f"/><path d="M617.115-303.589a19.437,19.437,0,0,0,6.084-5.244,5.671,5.671,0,0,1,.938,2.052A3.955,3.955,0,0,1,622-302.26,3.823,3.823,0,0,1,617.115-303.589Z" transform="translate(-597.258 352.536)" fill="#f5a81e"/><path d="M601.161-404.647c.938-.207,1.249.137,1.247,1.114,0,.949-.279,1.221-1.215,1.2-.832-.019-1.218-.156-1.158-1.1C600.086-404.24,600.057-404.923,601.161-404.647Z" transform="translate(-585.094 420.796)" fill="#040505"/><path d="M617.275-404.648c1.138-.283,1.038.461,1.1,1.232.081.978-.382,1.044-1.177,1.081-.974.046-1.175-.306-1.194-1.218C615.984-404.568,616.366-404.839,617.275-404.648Z" transform="translate(-596.468 420.796)" fill="#040505"/><path d="M633.066-404.723c1.014-.224,1.325.12,1.323,1.1,0,.949-.279,1.221-1.215,1.2-.832-.019-1.252-.156-1.149-1.1C632.105-404.265,631.874-405.16,633.066-404.723Z" transform="translate(-607.862 420.888)" fill="#040505"/><path d="M650.312-403.5c.252,1.037-.307,1.128-1.173,1.175-1.06.057-1.1-.442-1.14-1.271-.043-.944.328-1.091,1.162-1.1C650.077-404.7,650.546-404.491,650.312-403.5Z" transform="translate(-619.243 420.785)" fill="#040505"/></g></g></g></svg>