<svg xmlns="http://www.w3.org/2000/svg" width="95" height="95" viewBox="0 0 95 95"><g transform="translate(-240 -1286.742)"><rect width="95" height="95" transform="translate(240 1286.742)" fill="none"/><g transform="translate(-1962.551 2351.49)"><path d="M2274.2-999.76c1.175.214,1.522.951,1.516,2.092-.033,6.541.006,13.082-.025,19.623a5.353,5.353,0,0,1-5.7,5.6q-18.885.018-37.77,0c-3.676,0-5.827-2.177-5.856-5.875a10.05,10.05,0,0,1,.007-1.179c.082-.731-.241-.935-.931-.906-1.08.046-2.163.017-3.245.01-3.728-.021-5.875-2.126-5.88-5.84q-.023-14.312-.006-28.623,0-11.951,0-23.9c0-4.016,2.064-6.051,6.106-6.052q17.557-.005,35.114.013a3.985,3.985,0,0,0,2.32-.7,15.431,15.431,0,0,1,21.326,4.378,15.411,15.411,0,0,1-4.166,21.358,2.549,2.549,0,0,0-1.341,2.595c.11,1.665,0,3.343.037,5.014a1.825,1.825,0,0,1-1.181,1.985c-1.354.253-1.947-.113-2.144-1.428a29.183,29.183,0,0,1-.086-3.68c-.035-1.532-.145-1.654-1.6-1.448a16.989,16.989,0,0,1-3.233.16c-.955-.048-1.323.351-1.3,1.3.036,1.67.01,3.341.01,5.011q0,11.349,0,22.7a17.092,17.092,0,0,1-.078,2.208,5.77,5.77,0,0,1-5.979,5.342c-9.335.031-18.67.008-28,.015a7.3,7.3,0,0,0-1.9.1.712.712,0,0,0-.285.331c-.21,1.419-.456,2.845,1.231,3.62a4.723,4.723,0,0,0,1.467.121q18.35.006,36.7,0a5.782,5.782,0,0,0,1.317-.083,1.987,1.987,0,0,0,1.5-1.319c.056-.161.113-.318.162-.481.126-6.35.018-12.7.055-19.043a6.594,6.594,0,0,1,.083-1.764C2272.682-999.356,2273.083-1000.084,2274.2-999.76Z" transform="translate(0 -5.806)"/><path d="M2303.429-904.345a1.5,1.5,0,0,1-1.154,1.171c-13.085.031-26.171.005-39.257.016-.493,0-.982-.043-1.473-.075-1.755-.957-1.187-2.591-1.182-4.061a2.321,2.321,0,0,1,1.3-.139q14.384-.01,28.768.006c.4,0,.877-.207,1.1.074-.326-.307-.888-.078-1.379-.079q-14.089-.026-28.177-.02a3.188,3.188,0,0,1-1.594-.136c.394-.589.986-.254,1.462-.255,9.54-.026,19.081-.016,28.621-.02,4.075,0,6.156-2.093,6.158-6.188,0-9.639.018-19.278-.021-28.917-.005-1.2.046-1.853,1.581-1.585a13.67,13.67,0,0,0,5.539-.536c0,1.89.032,3.693-.01,5.493-.03,1.272.48,1.959,1.792,1.961a5.307,5.307,0,0,0,.007,3.7c-1.669,1.286-1.669,1.286-.284,3.031q-.026,1.834-.052,3.668c-1.268.18-1.468,1.038-1.464,2.138q.035,9.418,0,18.836c0,.57.176,1.181-.22,1.707a.922.922,0,0,1-.178-.691q0-10.081,0-20.162-.005,9.73,0,19.461A3.87,3.87,0,0,0,2303.429-904.345Z" transform="translate(-30.978 -78.329)" fill="#cbf4fb"/><path d="M2408.893-904.3c-.863-.24-1.585-.644-1.484-1.688s.84-1.341,1.768-1.344a1.554,1.554,0,0,1,1.142,1.621C2410.24-904.883,2409.6-904.538,2408.893-904.3Z" transform="translate(-134.642 -104.93)" fill="#080808"/><path d="M2226.626-1025.044c.383-1.621,1-2.1,2.8-2.1q15.1-.009,30.2,0h3.57a17.339,17.339,0,0,0-3.188,8.09,3.028,3.028,0,0,1-1.7.365q-11.133-.022-22.266,0c-.46,0-.97-.214-1.389.176a2.011,2.011,0,0,0-1.227,2.118c.056,1.718.038,3.438.008,5.157-.024,1.359.6,1.971,1.956,1.965,8.839-.038,17.678-.048,26.518-.106a.959.959,0,0,1,.953.437,15.192,15.192,0,0,0,6.516,5.346.923.923,0,0,1,.593,1.025q-.015,15.767-.02,31.535a2.464,2.464,0,0,1-.206.679c-.392-.336-.317-.8-.318-1.232q-.014-14.629,0-29.258c0-.288-.047-.593.183-.821a.866.866,0,0,0-.186.694c.02,10.119-.05,20.239.034,30.357a1.378,1.378,0,0,0,.225.486,1.5,1.5,0,0,1-1.145,1.185q-19.189-.012-38.378,0c-.787,0-1.573-.009-2.36-.05a1.773,1.773,0,0,1-1.169-1.726,2.537,2.537,0,0,0,.129-1.3q.008-25.858,0-51.717A2.506,2.506,0,0,0,2226.626-1025.044Z" transform="translate(-7.271 -20.511)" fill="#f9f6f4"/><path d="M2374.833-1025.52a12.515,12.515,0,0,1-12.5,12.608,12.594,12.594,0,0,1-12.59-12.559,12.6,12.6,0,0,1,12.468-12.538A12.525,12.525,0,0,1,2374.833-1025.52Z" transform="translate(-94.015 -12.858)" fill="#fe7c96"/><path d="M2271.519-987.9c3.44,0,6.882.037,10.321-.022,1.03-.018,1.491.146,1.433,1.335-.1,1.977-.011,1.981-2.06,1.982-6.734,0-13.468-.061-20.2.045-1.59.025-1.363-.79-1.439-1.778-.089-1.158.17-1.63,1.476-1.594C2264.538-987.833,2268.03-987.9,2271.519-987.9Z" transform="translate(-30.476 -48.143)" fill="#fee5b3"/><path d="M2230.588-830.958c.466-.409,1.031-.239,1.552-.239q18.83-.014,37.659,0c.516,0,1.092-.19,1.526.29-.494.466-1.112.3-1.682.3q-18.615.014-37.231,0C2231.788-830.6,2231.123-830.47,2230.588-830.958Z" transform="translate(-10.063 -158.551)" fill="#fbf8f6"/><path d="M2264.584-803.979c.43-.352.942-.217,1.421-.217q18.958-.01,37.917,0c.473,0,1-.155,1.392.275-.5.443-1.12.3-1.7.3q-18.6.012-37.2,0A2.577,2.577,0,0,1,2264.584-803.979Z" transform="translate(-34.016 -177.583)" fill="#cef7fe"/><path d="M2226.416-1020.024c.454.447.271,1.019.271,1.538q.014,25.621,0,51.242c0,.518.183,1.091-.269,1.539-.03-.389-.087-.778-.087-1.167q-.007-25.993,0-51.985C2226.331-1019.246,2226.386-1019.635,2226.416-1020.024Z" transform="translate(-7.061 -25.531)" fill="#fefefc"/><ellipse cx="0.077" cy="37.687" rx="0.077" ry="37.687" transform="translate(2218.535 -1056.259)" fill="#030303"/><path d="M2371.368-913.007l-.125,0h-.125a1.824,1.824,0,0,1-.149-1.144q-.008-15.386,0-30.772a1.922,1.922,0,0,1,.143-1.148c.485.494.271,1.116.273,1.679q.04,15.58.049,31.16A.153.153,0,0,1,2371.368-913.007Z" transform="translate(-108.96 -77.636)" fill="#fefefe"/><path d="M2260.6-818.14h31.2v.294h-31.216Z" transform="translate(-31.196 -167.776)" fill="#d0fbfe"/><path d="M2253.8-1001.8c.193-.684.749-.308,1.1-.309q11.254-.042,22.509-.008c.893,0,1.6-.046,1.439-1.307.39.394.217.766.311,1.082-.046,1.092-.892.544-1.318.547-7.177.041-14.355.03-21.533.028C2255.467-1001.768,2254.632-1001.788,2253.8-1001.8Z" transform="translate(-26.415 -37.227)" fill="#fcfaf8"/><path d="M2254.781-968.924h26.355v.148h-26.414Z" transform="translate(-27.068 -61.535)" fill="#030303"/><path d="M2253.787-995.764h24.948v.147h-25Z" transform="translate(-26.374 -42.624)" fill="#030303"/><ellipse cx="16.189" cy="0.079" rx="16.189" ry="0.079" transform="translate(2224.673 -1032.214)" fill="#040303"/><path d="M2405.721-858.5c-.337-.308-.262-.718-.263-1.1q0-9.868,0-19.735a.789.789,0,0,1,.326-.686v21.314A.14.14,0,0,1,2405.721-858.5Z" transform="translate(-133.27 -124.17)" fill="#d1fcfe"/><path d="M2264.482-875.2c-4.277,0-8.554.009-12.831-.006-1.295,0-2.087-.711-1.9-1.675a1.525,1.525,0,0,1,1.706-1.285q13.052.01,26.105.007c.956,0,1.626.36,1.634,1.45.007,1.178-.731,1.506-1.736,1.507Q2270.972-875.191,2264.482-875.2Z" transform="translate(-23.546 -125.486)" fill="#060606"/><path d="M2264.688-946.293c-4.179,0-8.359-.011-12.538.007-1.1,0-2.241-.062-2.282-1.447s1.06-1.528,2.187-1.526q12.612.021,25.224,0c.821,0,1.609.034,1.982.923.467,1.111-.369,2.031-1.887,2.036C2273.145-946.283,2268.917-946.293,2264.688-946.293Z" transform="translate(-23.646 -75.391)" fill="#030303"/><path d="M2278.233-902.427c.762.483,1.306,1.1.933,2.059-.349.9-1.159.911-1.977.91q-12.654-.013-25.309,0c-.873,0-1.71-.026-2.046-1.024-.345-1.025.331-1.527,1.084-1.969.3-.248.656-.161.992-.162q12.673-.007,25.346,0C2277.587-902.612,2277.951-902.714,2278.233-902.427Z" transform="translate(-23.558 -108.246)" fill="#030303"/><path d="M2250.951-922.732c-.989.038-1.3-.665-1.289-1.418a1.331,1.331,0,0,1,1.4-1.387c.245-.012.491-.023.737-.024q12.615,0,25.229-.008c.926,0,1.763.187,2.088,1.129.311.9-.344,1.359-1.066,1.7a2.722,2.722,0,0,1-1.831.4q-11.71.008-23.42,0A3.249,3.249,0,0,1,2250.951-922.732Z" transform="translate(-23.502 -92.083)" fill="#040404"/><path d="M2370.713-946.073q0,16.532.007,33.064c-.493-.429-.3-1.007-.3-1.521q-.018-15.008,0-30.017C2370.424-945.062,2370.233-945.638,2370.713-946.073Z" transform="translate(-108.563 -77.636)" fill="#f6f3f1"/><path d="M2280.307-902.755l-27.315-.024a.367.367,0,0,1-.142-.033,1.432,1.432,0,0,1-.165-.175,4.213,4.213,0,0,1,.663-.1q13.167-.008,26.335,0a4.283,4.283,0,0,1,.688.093c.015,0,.031.086.02.124A.427.427,0,0,1,2280.307-902.755Z" transform="translate(-25.631 -107.918)" fill="#fbf8f6"/><path d="M2252.556-927.835c.385-.445.908-.29,1.379-.29q12.5-.013,24.993,0c.471,0,.994-.155,1.38.289a1.632,1.632,0,0,1-1,.141q-12.875.005-25.75,0A1.648,1.648,0,0,1,2252.556-927.835Z" transform="translate(-25.541 -90.264)" fill="#f4f1ef"/><path d="M2252.556-927.084h27.752c-.4.428-.916.269-1.387.27q-12.489.013-24.979,0C2253.472-926.816,2252.951-926.654,2252.556-927.084Z" transform="translate(-25.541 -91.015)" fill="#fefefe"/><path d="M2253.445-915.138c-.2-.465.263-.206.371-.335a1.407,1.407,0,0,1,.572-.105h25.545a1.555,1.555,0,0,1,.574.1l.393.344a1.646,1.646,0,0,1-1,.14q-12.727.005-25.454,0A1.648,1.648,0,0,1,2253.445-915.138Z" transform="translate(-26.134 -99.122)" fill="#fefefe"/><path d="M2253.543-965.8c-.062-.464.3-.271.472-.271q13.106-.014,26.211-.006a1.565,1.565,0,0,1,.426.047c.035.01.034.15.049.23a1.65,1.65,0,0,1-1,.14q-12.579.005-25.157,0A1.648,1.648,0,0,1,2253.543-965.8Z" transform="translate(-26.232 -63.518)" fill="#fefefe"/><path d="M2253.56-914.088h27.455c-.386.443-.909.288-1.379.288q-12.349.013-24.7,0C2254.469-913.8,2253.946-913.643,2253.56-914.088Z" transform="translate(-26.248 -100.172)" fill="#f4f1ef"/><path d="M2253.556-951.774a1.044,1.044,0,0,1,.939-.3q12.88,0,25.76,0a1.382,1.382,0,0,1,.421.058c.035.011.028.154.041.236a1.637,1.637,0,0,1-1,.141q-12.579,0-25.16,0A1.642,1.642,0,0,1,2253.556-951.774Z" transform="translate(-26.246 -73.41)" fill="#f6f3f1"/><path d="M2253.555-890.832c.392-.434.913-.277,1.384-.278q12.344-.013,24.689,0c.471,0,.992-.157,1.384.276a1.616,1.616,0,0,1-1,.143q-12.728.005-25.456,0A1.637,1.637,0,0,1,2253.555-890.832Z" transform="translate(-26.245 -116.343)" fill="#fefefe"/><path d="M2253.555-890.107l27.457,0c-.385.446-.908.29-1.379.291q-12.349.012-24.7,0C2254.464-889.819,2253.941-889.663,2253.555-890.107Z" transform="translate(-26.245 -117.068)" fill="#f6f3f1"/><path d="M2253.556-951.07h27.161c-.391.434-.912.278-1.383.279q-12.2.013-24.4,0C2254.469-950.792,2253.947-950.635,2253.556-951.07Z" transform="translate(-26.246 -74.115)" fill="#fefefe"/><path d="M2253.56-965.059h27.159c-.386.444-.909.288-1.38.288q-12.2.013-24.4,0C2254.469-964.771,2253.946-964.615,2253.56-965.059Z" transform="translate(-26.248 -64.259)" fill="#f4f1ef"/><ellipse cx="18.709" cy="0.083" rx="18.709" ry="0.083" transform="translate(2222.156 -1000.328)" fill="#fcf9f7"/><path d="M2281.271-879.6h-26.354v-.147h26.416Z" transform="translate(-27.204 -124.367)" fill="#fdfaf8"/><path d="M2280.952-915.782c-8.9-.108-17.795-.127-26.692.01l-.232-.22,27.094-.012A1.205,1.205,0,0,0,2280.952-915.782Z" transform="translate(-26.578 -98.822)" fill="#050505"/><path d="M2387.332-1000.61c0-1.525.007-3.05,0-4.576-.007-1.039.413-1.775,1.516-1.755,1.014.018,1.441.732,1.443,1.7q.008,4.8,0,9.594c0,.961-.431,1.664-1.458,1.676-1.125.013-1.505-.734-1.5-1.764C2387.339-997.363,2387.332-998.986,2387.332-1000.61Z" transform="translate(-120.501 -34.749)" fill="#050203"/><path d="M2388.875-1020.107c-.863-.115-1.463-.538-1.476-1.481a1.324,1.324,0,0,1,1.326-1.451,1.359,1.359,0,0,1,1.574,1.362C2390.361-1020.77,2389.779-1020.265,2388.875-1020.107Z" transform="translate(-120.55 -23.402)" fill="#080404"/><ellipse cx="0.097" cy="7.025" rx="0.097" ry="7.025" transform="translate(2266.321 -1042.234)" fill="#fe809b"/><ellipse cx="17.049" cy="0.089" rx="17.049" ry="0.089" transform="translate(2223.87 -1017.144)" fill="#040404"/></g></g></svg>