<svg xmlns="http://www.w3.org/2000/svg" xmlns:xlink="http://www.w3.org/1999/xlink" width="1030" height="392.47" viewBox="0 0 1030 392.47"><defs><filter id="a" x="96.501" y="174" width="89" height="89" filterUnits="userSpaceOnUse"><feOffset dx="5" dy="5" input="SourceAlpha"/><feGaussianBlur stdDeviation="5" result="b"/><feFlood flood-opacity="0.082"/><feComposite operator="in" in2="b"/><feComposite in="SourceGraphic"/></filter><filter id="c" x="531.501" y="4" width="89" height="89" filterUnits="userSpaceOnUse"><feOffset dx="5" dy="5" input="SourceAlpha"/><feGaussianBlur stdDeviation="5" result="d"/><feFlood flood-opacity="0.082"/><feComposite operator="in" in2="d"/><feComposite in="SourceGraphic"/></filter><filter id="e" x="885.501" y="131" width="89" height="89" filterUnits="userSpaceOnUse"><feOffset dx="5" dy="5" input="SourceAlpha"/><feGaussianBlur stdDeviation="5" result="f"/><feFlood flood-opacity="0.082"/><feComposite operator="in" in2="f"/><feComposite in="SourceGraphic"/></filter></defs><g transform="translate(-285.499 -1502)"><g transform="translate(-884.787 1276.883)"><path d="M1459.514,370.257h-15.4l-5.035,114.951h25.473Z" transform="translate(43.107 20.39)" fill="#492e34"/><rect width="49.169" height="36.145" transform="translate(1548.828 461.159)" fill="#492e34"/><path d="M1487.672,394.257h-10.663l-2.962,63.1h16.587Z" transform="translate(48.716 24.239)" fill="#492e34"/><rect width="147.541" height="103.078" transform="translate(1885.902 463.826) rotate(90)" fill="#664249"/><rect width="216.817" height="95.99" transform="translate(1752.612 505.599)" fill="#664249"/><rect width="216.817" height="139.245" transform="translate(1470.039 471.232)" fill="#492e34"/><g transform="translate(1868.389 407.317)"><rect width="18.127" height="9.269" transform="translate(165.175 97.693)" fill="#664249"/><rect width="13.804" height="9.269" transform="translate(190.573 113.282)" fill="#664249"/><rect width="19.68" height="27.604" transform="translate(263.658 147.64)" fill="#6a5472"/><rect width="13.804" height="7.06" transform="translate(214.619 115.49)" fill="#6a5472"/><path d="M1882.931,412.018h-12.155l-.984,74.477h14.123Z" transform="translate(-1756.204 -380.229)" fill="#ff5050"/><g transform="translate(114.178 39.628)"><path d="M1882.935,418.774h-12.363l-.159,12.081h12.681Z" transform="translate(-1870.283 -418.774)" fill="#fff5e3"/><path d="M1883.171,432.991h-12.8l-.072,5.456h12.943Z" transform="translate(-1870.301 -416.493)" fill="#fff5e3"/></g><path d="M1876.142,478.442l.877-66.424h-6.243l-.984,74.477h14.123l-.107-8.054Z" transform="translate(-1756.204 -380.229)" fill="#7a5353" opacity="0.7" style="mix-blend-mode:multiply;isolation:isolate"/><path d="M3.412,0h7.477A3.412,3.412,0,0,1,14.3,3.412V6.04a0,0,0,0,1,0,0H0a0,0,0,0,1,0,0V3.412A3.412,3.412,0,0,1,3.412,0Z" transform="translate(240.465 56.97)" fill="#ff5050"/><path d="M3.412,0h7.477A3.412,3.412,0,0,1,14.3,3.412V6.04a0,0,0,0,1,0,0H0a0,0,0,0,1,0,0V3.412A3.412,3.412,0,0,1,3.412,0Z" transform="translate(291.396 56.97)" fill="#ff5050"/><g transform="translate(275.596 62.287)"><path d="M2011.79,571.165h-2.381V443.108a4.608,4.608,0,0,1,4.365-4.807h8.646a4.608,4.608,0,0,1,4.365,4.807v7.249H2024.4v-7.249a2.331,2.331,0,0,0-1.984-2.518h-8.646a2.331,2.331,0,0,0-1.984,2.518Z" transform="translate(-2009.409 -438.301)" fill="#6a5472"/></g><g transform="translate(223.855 62.287)"><path d="M1967.2,506.345h-2.381V442.5a4.288,4.288,0,0,1,4.365-4.2h5.944a4.289,4.289,0,0,1,4.365,4.2v6.041h-2.381V442.5a1.949,1.949,0,0,0-1.984-1.908h-5.944a1.95,1.95,0,0,0-1.984,1.908Z" transform="translate(-1964.819 -438.301)" fill="#6a5472"/></g><path d="M4.866,0H25.327a4.866,4.866,0,0,1,4.866,4.866v8.676a0,0,0,0,1,0,0H0a0,0,0,0,1,0,0V4.866A4.866,4.866,0,0,1,4.866,0Z" transform="translate(283.449 60.087)" fill="#6a5472"/><path d="M5.838,0H24.355a5.838,5.838,0,0,1,5.838,5.838v6.438a0,0,0,0,1,0,0H0a0,0,0,0,1,0,0V5.838A5.838,5.838,0,0,1,5.838,0Z" transform="translate(233.138 60.867)" fill="#6a5472"/><g transform="translate(19.737 112.761)"><path d="M1792.088,565.683h-3.175v-78.63c0-2.9,2.621-5.254,5.842-5.254h6.079c3.221,0,5.842,2.358,5.842,5.254v4.556H1803.5v-4.556a2.471,2.471,0,0,0-2.667-2.2h-6.079a2.471,2.471,0,0,0-2.668,2.2Z" transform="translate(-1788.913 -481.799)" fill="#c4b09d"/></g><path d="M1805.085,486.27l-3.644,1.5a2.924,2.924,0,0,0-1.847,2.69v4.694h9.728V488.96A3.034,3.034,0,0,0,1805.085,486.27Z" transform="translate(-1767.462 -368.359)" fill="#3f262c"/><g transform="translate(83.318 90.432)"><path d="M1847.143,496.9h-3.437V468.638a6.214,6.214,0,0,1,6.325-6.082h6.581a6.215,6.215,0,0,1,6.326,6.082v5.413H1859.5v-5.413a2.838,2.838,0,0,0-2.889-2.778h-6.581a2.838,2.838,0,0,0-2.888,2.778Z" transform="translate(-1843.706 -462.556)" fill="#3f262c"/></g><g transform="translate(67.512 90.432)"><path d="M1833.521,496.9h-3.436V468.638a6.214,6.214,0,0,1,6.325-6.082h6.581a6.214,6.214,0,0,1,6.325,6.082v5.413h-3.436v-5.413a2.839,2.839,0,0,0-2.889-2.778h-6.581a2.839,2.839,0,0,0-2.889,2.778Z" transform="translate(-1830.085 -462.556)" fill="#3f262c"/></g><path d="M2050.261,451.046c0-9.152-37.03-9.152-37.03,0V553.574h37.03Z" transform="translate(-1733.2 -375.071)" fill="#fff5e3"/><rect width="37.029" height="4.417" transform="translate(280.031 122.245)" fill="#ff5050"/><rect width="37.029" height="10.912" transform="translate(280.031 107.176)" fill="#ff5050"/><ellipse cx="13.239" cy="12.73" rx="13.239" ry="12.73" transform="translate(285.307 137.183)" fill="#ff5050"/><path d="M2025.12,542.865V444.534c-6.589.842-11.889,2.994-11.889,6.455V553.518h37.03V542.865Z" transform="translate(-1733.2 -375.014)" fill="#7a5353" opacity="0.3" style="mix-blend-mode:multiply;isolation:isolate"/><rect width="50.496" height="8.833" transform="translate(269.559 170.568)" fill="#664249"/><rect width="21.277" height="8.833" transform="translate(262.466 170.568)" fill="#3f262c"/><path d="M1918.412,384.623h-18.6l-1.259,109.293h21.117Z" transform="translate(-1751.592 -384.623)" fill="#ff5050"/><g transform="translate(147.38 6.893)"><path d="M1918.355,390.563H1899.6l-.193,16.757h19.145Z" transform="translate(-1898.836 -390.563)" fill="#fff5e3"/><path d="M1918.643,410.713h-19.3l-.056,4.871h19.41Z" transform="translate(-1898.854 -387.331)" fill="#fff5e3"/><path d="M1919.115,441.611h-20.123l-.079,6.82h20.28Z" transform="translate(-1898.914 -382.376)" fill="#fff5e3"/></g><path d="M1906.456,486.706l1.175-102.083h-7.82l-1.259,109.293h21.117l-.083-7.209Z" transform="translate(-1751.592 -384.623)" fill="#7a5353" opacity="0.7" style="mix-blend-mode:multiply;isolation:isolate"/><path d="M6.454,0H18.611a6.454,6.454,0,0,1,6.454,6.454V29.21a0,0,0,0,1,0,0H0a0,0,0,0,1,0,0V6.454A6.454,6.454,0,0,1,6.454,0Z" transform="translate(108.117 87.366)" fill="#664249"/><path d="M1874.6,477.433V459.914h-4.4a5.028,5.028,0,0,0-5.123,4.926v24.284h25.065V477.433Z" transform="translate(-1756.961 -372.548)" fill="#3f262c"/><path d="M6.454,0H24.3a6.454,6.454,0,0,1,6.454,6.454v28.04a0,0,0,0,1,0,0H0a0,0,0,0,1,0,0V6.454A6.454,6.454,0,0,1,6.454,0Z" transform="translate(142.141 77.71)" fill="#664249"/><path d="M1904.531,478.422v-26.83h-5.01a5.027,5.027,0,0,0-5.123,4.926v29.569h30.758v-7.664Z" transform="translate(-1752.258 -373.882)" fill="#3f262c"/><path d="M2006.9,451.046c0-9.152-37.029-9.152-37.029,0V553.574H2006.9Z" transform="translate(-1740.154 -375.071)" fill="#fff5e3"/><rect width="37.029" height="10.912" transform="translate(229.72 99.642)" fill="#95cbdb"/><path d="M1998.642,446.4V553.219h3.647V450.69C2002.289,448.914,2000.889,447.484,1998.642,446.4Z" transform="translate(-1735.54 -374.716)" fill="#7a5353" opacity="0.3" style="mix-blend-mode:multiply;isolation:isolate"/><path d="M1983.046,540.288v-95.88c-7.17.717-13.172,2.917-13.172,6.6V553.538H2006.9v-13.25Z" transform="translate(-1740.154 -375.035)" fill="#7a5353" opacity="0.3" style="mix-blend-mode:multiply;isolation:isolate"/><rect width="7.295" height="22.733" rx="1.997" transform="translate(17.677 159.656)" fill="#664249"/><rect width="30.497" height="22.733" rx="3.745" transform="translate(1.263 174.023)" fill="#664249"/><rect width="20.176" height="22.093" transform="translate(12.699 176.923)" fill="#c4b09d"/><rect width="10.382" height="22.093" transform="translate(5.269 176.923)" fill="#eddcc0"/><rect width="15.224" height="4.677" transform="translate(3.961 194.339)" fill="#c4b09d"/><rect width="6.194" height="22.093" transform="translate(0 176.923)" fill="#c4b09d"/><rect width="86.774" height="22.093" transform="translate(238.643 176.144)" fill="#c4b09d"/><rect width="4.831" height="7.015" transform="translate(287.221 185.766)" fill="#6a5472"/><rect width="4.831" height="7.015" transform="translate(278.765 185.766)" fill="#6a5472"/><rect width="7.612" height="12.47" transform="translate(306.932 185.766)" fill="#6a5472"/><rect width="18.643" height="22.093" transform="translate(257.198 176.144)" fill="#664249"/><rect width="100.158" height="78.934" transform="translate(158.338 119.303)" fill="#c4b09d"/><rect width="13.804" height="80.376" transform="translate(184.223 117.86)" fill="#664249"/><rect width="100.158" height="97.523" transform="translate(93.5 100.713)" fill="#fff5e3"/><rect width="100.158" height="21.725" transform="translate(93.5 157.837)" fill="#c4b09d"/><rect width="32.387" height="97.523" transform="translate(93.5 100.713)" fill="#c4b09d"/><rect width="155.493" height="37.965" transform="translate(117.781 160.271)" fill="#fff5e3"/><rect width="155.493" height="6.14" transform="translate(117.781 161.57)" fill="#eddcc0"/><rect width="52.551" height="37.965" transform="translate(92.384 160.271)" fill="#c4b09d"/><rect width="89.998" height="12.898" transform="translate(29.428 186.117)" fill="#48344c"/><rect width="40.733" height="12.898" transform="translate(29.428 186.117)" fill="#312335"/><rect width="28.555" height="14.029" transform="translate(201.489 184.207)" fill="#c4b09d"/><rect width="24.097" height="12.47" transform="translate(202.046 186.01)" fill="#eddcc0"/><rect width="5.877" height="9.743" transform="translate(256.725 188.494)" fill="#c4b09d"/><rect width="5.876" height="9.742" transform="translate(248.484 188.494)" fill="#c4b09d"/><rect width="5.876" height="3.897" transform="translate(239.264 188.494)" fill="#c4b09d"/><rect width="28.555" height="14.029" transform="translate(157.446 184.207)" fill="#c4b09d"/><rect width="24.418" height="11.886" transform="translate(158.005 186.35)" fill="#eddcc0"/><path d="M1861.962,484.782c0-5.543-49.445-5.543-49.445,0v5.325h49.445Z" transform="translate(-1765.39 -369.226)" fill="#3f262c"/><rect width="156.1" height="5.651" transform="translate(118.389 159.461)" fill="#ff5050"/><rect width="37.286" height="5.651" transform="translate(105.42 159.461)" fill="#7a5353" opacity="0.7" style="mix-blend-mode:multiply;isolation:isolate"/><path d="M1889.49,499.458c0-18.494-92.966-18.494-92.966,0l-.946,61.632h93.911Z" transform="translate(-1768.107 -368.43)" fill="#95cbdb"/><path d="M1823.07,558.207V486.553c-15.454,1.881-27.492,6.13-27.492,12.75v61.632h93.911v-2.728Z" transform="translate(-1768.107 -368.275)" fill="#6d94a0"/><g transform="translate(27.471 139.781)" opacity="0.7" style="mix-blend-mode:overlay;isolation:isolate"><rect width="93.912" height="9.937" fill="#fff5e3"/><rect width="93.912" height="4.287" transform="translate(0 19.68)" fill="#fff5e3"/></g><g transform="translate(100.178 168.562)" opacity="0.66"><path d="M1870.556,529.888v2.1l-.855,2.153h-5.958v1.91h4.726a2.059,2.059,0,0,1,2.187,2.1v6.553a2.06,2.06,0,0,1-2.187,2.1h-10.232V542.6h6.939v-2.345h-6.939V529.888Z" transform="translate(-1858.236 -529.888)" fill="#fff5e3"/></g><g transform="translate(135.568 109.532)"><rect width="6.477" height="12.586" transform="translate(12.586 0) rotate(90)" fill="#c4b09d"/><rect width="6.477" height="12.586" transform="translate(31.464 0) rotate(90)" fill="#c4b09d"/><rect width="6.477" height="12.586" transform="translate(51.221 0) rotate(90)" fill="#c4b09d"/></g><rect width="7.373" height="21.58" transform="translate(241.719 133.937)" fill="#6a5472"/><rect width="7.373" height="21.58" transform="translate(224.612 133.937)" fill="#6a5472"/><rect width="7.373" height="21.58" transform="translate(207.506 133.937)" fill="#6a5472"/><rect width="51.22" height="11.059" transform="translate(135.568 122.635)" fill="#c4b09d"/><path d="M1841.361,465.392a4.157,4.157,0,1,0,4.154-4A4.076,4.076,0,0,0,1841.361,465.392Z" transform="translate(-1760.764 -372.31)" fill="#3f262c"/><path d="M1843.34,465.087a1.859,1.859,0,1,0,1.858-1.787A1.823,1.823,0,0,0,1843.34,465.087Z" transform="translate(-1760.447 -372.005)" fill="#c4b09d"/></g><rect width="216.817" height="12.147" transform="translate(1170.286 605.441)" fill="#492e34"/><rect width="119.467" height="42.366" transform="translate(1258.553 538.781)" fill="#492e34"/><rect width="15.402" height="16.591" transform="translate(1232.488 564.556)" fill="#492e34"/><rect width="15.402" height="16.591" transform="translate(1205.534 564.556)" fill="#492e34"/><path d="M0,0H216.817V44.44H0Z" transform="translate(1192.205 573.148)" fill="#492e34"/><g transform="translate(1240.452 447.435)"><rect width="18.644" height="91.387" transform="translate(207.597 91.387) rotate(180)" fill="#ff5050"/><rect width="18.644" height="8.762" transform="translate(207.597 13.797) rotate(180)" fill="#fff5e3"/><rect width="18.644" height="8.762" transform="translate(207.597 26.577) rotate(180)" fill="#fff5e3"/><rect width="8.876" height="91.387" transform="translate(207.597 91.387) rotate(180)" fill="#7a5353" opacity="0.3" style="mix-blend-mode:multiply;isolation:isolate"/><rect width="13.422" height="55.856" transform="translate(179.835 91.387) rotate(180)" fill="#ff5050"/><rect width="13.422" height="3.375" transform="translate(179.835 41.618) rotate(180)" fill="#fff5e3"/><rect width="13.422" height="5.674" transform="translate(179.835 51.099) rotate(180)" fill="#fff5e3"/><rect width="5.669" height="55.856" transform="translate(179.835 91.387) rotate(180)" fill="#7a5353" opacity="0.3" style="mix-blend-mode:multiply;isolation:isolate"/><rect width="12.425" height="7.94" transform="translate(146.875 77.12) rotate(180)" fill="#664249"/><rect width="7.087" height="7.94" transform="translate(151.43 77.12) rotate(180)" fill="#3f262c"/><rect width="61.911" height="11.972" transform="translate(218.167 81.152) rotate(180)" fill="#664249"/><rect width="24.001" height="11.972" transform="translate(224.857 81.152) rotate(180)" fill="#3f262c"/><path d="M1324.524,464.329H1270.4l-21.147,102.208h96.414Z" transform="translate(-1227.787 -411.958)" fill="#ff5050"/><g transform="translate(35.493 62.528)"><path d="M1324.3,473.082H1265.98l-2.244,10.844h62.811Z" transform="translate(-1260.958 -473.082)" fill="#fff5e3"/><path d="M1328.373,488.436h-65.7l-1.335,6.455h68.367Z" transform="translate(-1261.342 -470.62)" fill="#fff5e3"/></g><path d="M1290.769,464.329H1270.4l-21.147,102.208h41.512Z" transform="translate(-1227.787 -411.958)" fill="#7a5353" opacity="0.3" style="mix-blend-mode:multiply;isolation:isolate"/><rect width="85.773" height="11.405" transform="translate(99.503 158.649) rotate(180)" fill="#664249"/><rect width="30.961" height="11.405" transform="translate(77.51 158.649) rotate(180)" fill="#3f262c"/><rect width="114.794" height="83.345" transform="translate(235.257 157.186) rotate(180)" fill="#c4b09d"/><rect width="75.566" height="28.008" transform="translate(200.643 109.847) rotate(180)" fill="#6a5472"/><rect width="73.239" height="25.368" transform="translate(200.643 109.847) rotate(180)" fill="#906f93"/><g transform="translate(133.24 82.542)"><rect width="1.423" height="27.305" transform="translate(61.78 27.305) rotate(180)" fill="#6a5472"/><rect width="1.423" height="27.305" transform="translate(54.236 27.305) rotate(180)" fill="#6a5472"/><rect width="1.424" height="27.305" transform="translate(46.691 27.305) rotate(180)" fill="#6a5472"/><rect width="1.423" height="27.305" transform="translate(39.146 27.305) rotate(180)" fill="#6a5472"/><rect width="1.423" height="27.305" transform="translate(31.602 27.305) rotate(180)" fill="#6a5472"/><rect width="1.424" height="27.305" transform="translate(24.057 27.305) rotate(180)" fill="#6a5472"/><rect width="1.423" height="27.305" transform="translate(16.513 27.305) rotate(180)" fill="#6a5472"/><rect width="1.423" height="27.305" transform="translate(8.968 27.305) rotate(180)" fill="#6a5472"/><rect width="1.424" height="27.305" transform="translate(1.424 27.305) rotate(180)" fill="#6a5472"/></g><path d="M1372.025,538.083l5.487-3.792,10.569,22.23h-16.057Z" transform="translate(-1208.098 -400.738)" fill="#c4b09d"/><rect width="48.97" height="1.517" transform="translate(169.433 134.989) rotate(180)" fill="#eddcc0"/><rect width="114.67" height="23.688" transform="translate(165.482 158.649) rotate(180)" fill="#c4b09d"/><path d="M1368.949,535.181l9.033.375v23.688h-9.033Z" transform="translate(-1208.591 -400.595)" fill="#eddcc0"/><rect width="29.827" height="83.345" transform="translate(236.869 157.186) rotate(180)" fill="#664249"/><rect width="5.979" height="8.523" transform="translate(136.586 152.29) rotate(179.999)" fill="#6a5472"/><rect width="12.456" height="10.362" transform="translate(195.661 152.29) rotate(180)" fill="#6a5472"/><rect width="5.374" height="10.362" transform="translate(249.897 152.29) rotate(180)" fill="#3f262c"/><rect width="5.339" height="4.682" transform="translate(195.661 130.343) rotate(180)" fill="#c4b09d"/><rect width="3.63" height="20.045" transform="translate(230.964 130.343) rotate(180)" fill="#492e34"/><rect width="3.63" height="20.045" transform="translate(224.985 130.343) rotate(180)" fill="#492e34"/><rect width="3.63" height="20.045" transform="translate(219.007 130.344) rotate(180)" fill="#492e34"/><rect width="5.339" height="4.682" transform="translate(186.124 130.343) rotate(180)" fill="#c4b09d"/><rect width="5.339" height="4.682" transform="translate(176.586 130.343) rotate(180)" fill="#c4b09d"/><rect width="5.339" height="4.682" transform="translate(167.049 130.344) rotate(180)" fill="#c4b09d"/><rect width="5.339" height="4.682" transform="translate(157.511 130.344) rotate(180)" fill="#c4b09d"/><rect width="5.339" height="4.682" transform="translate(147.974 130.344) rotate(180)" fill="#c4b09d"/><rect width="5.339" height="4.682" transform="translate(138.436 130.344) rotate(180)" fill="#c4b09d"/><rect width="68.685" height="3.324" transform="translate(125.482 147.092) rotate(180)" fill="#6a5472"/><rect width="260.003" height="6.455" transform="translate(260.003 159.938) rotate(180)" fill="#664249"/><rect width="46.477" height="6.455" transform="translate(260.003 159.938) rotate(180)" fill="#3f262c"/><g transform="translate(132.101 80.089)"><rect width="2.327" height="31.63" transform="translate(62.684 31.63) rotate(180)" fill="#c4b09d"/><rect width="2.327" height="31.63" transform="translate(55.139 31.63) rotate(180)" fill="#c4b09d"/><rect width="0.52" height="31.63" transform="translate(46.691 31.63) rotate(180)" fill="#c4b09d"/><rect width="0.52" height="31.63" transform="translate(39.146 31.63) rotate(180)" fill="#c4b09d"/><rect width="1.423" height="31.63" transform="translate(32.506 31.63) rotate(180)" fill="#c4b09d"/><rect width="0.52" height="31.63" transform="translate(24.057 31.63) rotate(180)" fill="#c4b09d"/><rect width="2.327" height="31.63" transform="translate(17.417 31.63) rotate(180)" fill="#c4b09d"/><rect width="1.423" height="31.63" transform="translate(8.968 31.63) rotate(180)" fill="#c4b09d"/><rect width="1.423" height="31.63" transform="translate(1.423 31.63) rotate(180)" fill="#c4b09d"/></g></g><g transform="translate(1466.812 243.117)"><path d="M1553.851,245.625h-25.282l-1.331,351.809h27.943Z" transform="translate(-1409.565 -242.715)" fill="#ff5050"/><g transform="translate(118.807 15.063)"><path d="M1553.729,256.1h-25.374l-.069,18.19H1553.8Z" transform="translate(-1528.204 -256.098)" fill="#fff5e3"/><path d="M1553.841,279.1h-25.576l-.05,13.247h25.676Z" transform="translate(-1528.215 -252.409)" fill="#fff5e3"/></g><path d="M1538.5,445.209l.728-199.584h-10.661l-1.331,351.809h8.637V601.4h20.459l-1.68-159.554Z" transform="translate(-1409.565 -242.715)" fill="#7a5353" opacity="0.7" style="mix-blend-mode:multiply;isolation:isolate"/><g transform="translate(113.946)"><rect width="35.398" height="6.004" rx="1.123" transform="translate(0)" fill="#ff5050"/><path d="M1535.572,246.764v-1.289a2.357,2.357,0,0,1,2.357-2.358h-11.544a2.357,2.357,0,0,0-2.358,2.358v1.289a2.357,2.357,0,0,0,2.358,2.357h11.544A2.356,2.356,0,0,1,1535.572,246.764Z" transform="translate(-1524.026 -243.117)" fill="#7a5353" opacity="0.7" style="mix-blend-mode:multiply;isolation:isolate"/></g><path d="M1685.686,317.12h-41.334l-2.175,222.709h45.685Z" transform="translate(-1391.132 -231.248)" fill="#ff5050"/><path d="M1643.716,354.377h42.112l-.208-21.295h-41.7Z" transform="translate(-1390.885 -228.689)" fill="#fff5e3"/><path d="M1659.3,317.12h-14.95l-2.175,222.709h15.095Z" transform="translate(-1391.132 -231.249)" fill="#7a5353" opacity="0.7" style="mix-blend-mode:multiply;isolation:isolate"/><g transform="translate(33.376 250.531)"><path d="M1514.026,514.186h-5.89V473.593c0-4.442-3.266-8.583-7.281-8.583h-33.09c-4.015,0-7.281,4.141-7.281,8.583v30.169h-5.891V473.593c0-8.034,5.91-14.571,13.173-14.571h33.09c7.263,0,13.171,6.536,13.171,14.571Z" transform="translate(-1454.592 -459.022)" fill="#ff5050"/><g transform="translate(0 0.215)" opacity="0.7" style="mix-blend-mode:multiply;isolation:isolate"><path d="M1457.85,463.338a15.41,15.41,0,0,0-3.258,9.563v30.169h5.891V472.9a9.463,9.463,0,0,1,1.828-5.55Z" transform="translate(-1454.592 -458.545)" fill="#7a5353"/><path d="M1497.046,459.207l-5.191,5.773h3.024c4.015,0,7.281,4.141,7.281,8.583v40.593h5.89V473.563C1508.05,466.347,1503.279,460.356,1497.046,459.207Z" transform="translate(-1448.616 -459.207)" fill="#7a5353"/></g></g><rect width="14.859" height="8.318" rx="1.556" transform="translate(28.941 260.999)" fill="#ff5050"/><rect width="14.859" height="8.318" rx="1.556" transform="translate(82.166 260.999)" fill="#ff5050"/><rect width="5.594" height="63.054" transform="translate(16.504 291)" fill="#492e34"/><rect width="5.593" height="63.053" transform="translate(50.644 291)" fill="#492e34"/><path d="M1483.172,479.35c0-11.321-45.685-11.321-45.685,0V545.6c0,9.9,45.685,9.9,45.685,0Z" transform="translate(-1423.959 -206.592)" fill="#fff5e3"/><rect width="5.746" height="63.053" transform="translate(69.188 291)" fill="#492e34"/><rect width="5.746" height="63.053" transform="translate(104.257 291)" fill="#664249"/><path d="M1529.041,479.35c0-11.321-45.685-11.321-45.685,0V545.6c0,9.894,45.685,9.894,45.685,0Z" transform="translate(-1416.603 -206.592)" fill="#fff5e3"/><g transform="translate(66.753 289.313)"><rect width="45.685" height="15.422" fill="#906f93"/><rect width="45.685" height="9.886" transform="translate(0 19.178)" fill="#906f93"/></g><path d="M1511.392,471.031l-28.036,33.082v41.456c0,9.9,45.685,9.9,45.685,0V479.323C1529.041,474.527,1520.842,471.764,1511.392,471.031Z" transform="translate(-1416.603 -206.565)" fill="#7a5353" opacity="0.7" style="mix-blend-mode:multiply;isolation:isolate"/><path d="M1737.251,267.8h-18.058l-.951,326.078H1738.2Z" transform="translate(-1378.933 -239.158)" fill="#ff5050"/><path d="M1718.942,311.682h18.333l-.069-23.764h-18.195Z" transform="translate(-1378.82 -235.932)" fill="#fff5e3"/><path d="M1718.853,339.7h18.541l-.012-4.216h-18.516Z" transform="translate(-1378.835 -228.303)" fill="#fff5e3"/><path d="M1726.544,575.193l.9-307.394h-8.248l-.951,326.077H1738.2l-.054-18.684Z" transform="translate(-1378.933 -239.158)" fill="#7a5353" opacity="0.7" style="mix-blend-mode:multiply;isolation:isolate"/><rect width="25.282" height="27.728" transform="translate(336.648 216.08)" fill="#664249"/><path d="M1724.8,443.714V429.332h-8.851V457.06h25.282V443.714Z" transform="translate(-1379.3 -213.252)" fill="#3f262c"/><rect width="31.048" height="27.728" transform="translate(333.765 235.601)" fill="#eddcc0"/><rect width="31.048" height="10.551" transform="translate(333.765 253.976)" fill="#c4b09d"/><rect width="13.241" height="27.728" transform="translate(333.765 235.601)" fill="#c4b09d"/><rect width="79.283" height="95.827" transform="translate(311.588 258.892)" fill="#c4b09d"/><rect width="80.701" height="2.916" transform="translate(310.17 259.781)" fill="#c4b09d"/><g transform="translate(336.752 267.122)"><rect width="9.933" height="16.632" fill="#6a5472"/></g><g transform="translate(355.728 267.122)"><rect width="9.933" height="16.632" fill="#6a5472"/></g><g transform="translate(374.704 267.122)"><rect width="9.933" height="16.632" fill="#6a5472"/></g><path d="M1710.56,531.62V466.227h-16.209v95.827h79.283V531.62Z" transform="translate(-1382.764 -207.335)" fill="#664249"/><rect width="67.899" height="12.456" transform="translate(239.937 179.263)" fill="#664249"/><rect width="16.173" height="12.456" transform="translate(238.522 179.263)" fill="#3f262c"/><rect width="171.081" height="12.456" transform="translate(142.914 188.753)" fill="#664249"/><rect width="5.337" height="12.456" transform="translate(142.914 188.753)" fill="#3f262c"/><rect width="80.701" height="2.916" transform="translate(310.878 258.101)" fill="#ff5050"/><rect width="20.017" height="2.916" transform="translate(306.431 258.101)" fill="#7a5353" opacity="0.7" style="mix-blend-mode:multiply;isolation:isolate"/><rect width="184.069" height="139.304" transform="translate(136.167 193.676)" fill="#fff5e3"/><path d="M1717.219,410.025H1610.893l-52.7,139.3h106.326Z" transform="translate(-1404.601 -216.349)" fill="#fffbee"/><rect width="178.124" height="14.057" transform="translate(142.113 323.376)" fill="#c4b09d"/><rect width="14.456" height="139.304" transform="translate(136.167 193.676)" fill="#c4b09d"/><rect width="112.438" height="13.309" transform="translate(0 350.947)" fill="#492e34"/><rect width="45.266" height="13.309" transform="translate(19.076 350.947)" fill="#664249"/><path d="M1738.168,497.864l-16.517-.066v37.266h16.318Z" transform="translate(-1378.386 -202.272)" fill="#eddcc0"/><rect width="16.95" height="5.874" transform="translate(342.646 294.951)" fill="#c62b1a"/><path d="M1774.771,497.864l-16.518-.066v37.266h16.318Z" transform="translate(-1372.516 -202.272)" fill="#eddcc0"/><rect width="16.95" height="5.874" transform="translate(385.12 294.951)" fill="#c62b1a"/><rect width="262.133" height="37.266" transform="translate(99.797 326.991)" fill="#fff5e3"/><rect width="8.302" height="37.266" transform="translate(355.505 326.991)" fill="#eddcc0"/><rect width="24.537" height="37.266" transform="translate(99.797 326.991)" fill="#c4b09d"/><rect width="199.594" height="10.315" transform="translate(145.703 353.942)" fill="#c4b09d"/><rect width="184.303" height="5.174" transform="translate(147.617 359.083)" fill="#eddcc0"/><rect width="46.239" height="4.991" transform="translate(140.62 338.304)" fill="#6a5472"/><rect width="14.451" height="4.991" transform="translate(103.656 338.304)" fill="#48344c"/><rect width="46.239" height="4.991" transform="translate(194.51 338.304)" fill="#6a5472"/><rect width="12.739" height="4.991" transform="translate(326.448 338.304)" fill="#6a5472"/><rect width="12.739" height="4.991" transform="translate(307.67 338.304)" fill="#6a5472"/><rect width="7.017" height="6.904" transform="translate(286.816 357.353)" fill="#6a5472"/><rect width="7.017" height="6.904" transform="translate(271.991 357.353)" fill="#6a5472"/><rect width="7.017" height="6.904" transform="translate(236.806 357.353)" fill="#6a5472"/><rect width="7.017" height="6.904" transform="translate(201.621 357.353)" fill="#6a5472"/><rect width="50.702" height="8.6" rx="1.609" transform="translate(248.536 80.951)" fill="#ff5050"/><path d="M1656.552,318.1v-1.847a3.376,3.376,0,0,1,3.376-3.377h-16.537a3.377,3.377,0,0,0-3.376,3.377V318.1a3.377,3.377,0,0,0,3.376,3.377h16.537A3.376,3.376,0,0,1,1656.552,318.1Z" transform="translate(-1391.479 -231.929)" fill="#7a5353" opacity="0.7" style="mix-blend-mode:multiply;isolation:isolate"/><g transform="translate(336.351 25.195)"><rect width="25.875" height="8.6" rx="1.609" transform="translate(0 0)" fill="#ff5050"/><path d="M1726.4,270.054v-1.847a3.264,3.264,0,0,1,3.139-3.377h-10.7a3.264,3.264,0,0,0-3.138,3.377v1.847a3.264,3.264,0,0,0,3.138,3.377h10.7A3.264,3.264,0,0,1,1726.4,270.054Z" transform="translate(-1715.693 -264.83)" fill="#7a5353" opacity="0.7" style="mix-blend-mode:multiply;isolation:isolate"/></g><g transform="translate(155.822 229.976)"><rect width="158.899" height="49.78" transform="translate(0.179 2.496)" fill="#6a5472"/><rect width="158.495" height="25.594" transform="translate(0.583 24.583)" fill="#906f93"/><rect width="158.899" height="2.645" transform="translate(0.179 49.616)" fill="#48344c"/><rect width="158.898" height="6.296" transform="translate(0.179 2.496)" fill="#48344c"/><g transform="translate(21.119)"><rect width="3.163" height="55.162" fill="#fff5e3"/><rect width="3.163" height="55.162" transform="translate(28.464)" fill="#fffbee"/><rect width="3.163" height="55.162" transform="translate(56.928)" fill="#fffbee"/><rect width="3.163" height="55.162" transform="translate(85.392 0)" fill="#fffbee"/><rect width="3.163" height="55.162" transform="translate(113.856 0)" fill="#fff5e3"/></g><rect width="0.964" height="49.78" transform="translate(0 2.496)" fill="#48344c"/><rect width="4.833" height="49.78" transform="translate(154.244 2.496)" fill="#48344c"/></g><path d="M1778.976,528.267l-43.247-29.447v67.544h43.247Z" transform="translate(-1376.128 -202.108)" fill="#fff5e3"/><g transform="translate(371.215 343.406)"><rect width="20.019" height="20.851" fill="#664249"/><rect width="17.943" height="19.537" transform="translate(1.038 1.314)" fill="#ffae39"/><rect width="17.943" height="14.837" transform="translate(1.038 6.014)" fill="#ffda64"/><rect width="17.943" height="1.121" transform="translate(1.038 17.802)" fill="#ffae39"/><rect width="17.943" height="1.121" transform="translate(1.038 14.763)" fill="#ffae39"/><rect width="17.943" height="1.121" transform="translate(1.038 11.723)" fill="#ffae39"/><rect width="17.943" height="1.121" transform="translate(1.038 8.683)" fill="#ffae39"/></g><rect width="201.825" height="2.966" transform="translate(144.588 352.163)" fill="#ff5050"/><rect width="4.645" height="38.192" transform="translate(398.498 326.065)" fill="#eddcc0"/><path d="M1779.007,535.732V529.8l-43.246-29.447-.227,5.886Z" transform="translate(-1376.16 -201.862)" fill="#eddcc0"/><path d="M1779,532.665v-5.931l-43.246-29.447-.19,5.849Z" transform="translate(-1376.154 -202.354)" fill="#ff5050"/><path d="M1815.574,528.267l-43.247-29.447v67.544h43.247Z" transform="translate(-1370.259 -202.108)" fill="#fff5e3"/><path d="M1815.618,536.243v-5.931l-43.247-29.447-.32,5.8Z" transform="translate(-1370.303 -201.78)" fill="#eddcc0"/><path d="M1815.6,532.665v-5.931l-43.247-29.447-.2,5.874Z" transform="translate(-1370.286 -202.354)" fill="#ff5050"/><g transform="translate(413.682 343.406)"><rect width="20.019" height="20.851" fill="#664249"/><rect width="17.943" height="19.537" transform="translate(1.038 1.314)" fill="#ffae39"/><rect width="17.943" height="14.837" transform="translate(1.038 6.014)" fill="#ffda64"/><rect width="17.943" height="1.121" transform="translate(1.038 17.802)" fill="#ffae39"/><rect width="17.943" height="1.121" transform="translate(1.038 14.763)" fill="#ffae39"/><rect width="17.943" height="1.121" transform="translate(1.038 11.723)" fill="#ffae39"/><rect width="17.943" height="1.121" transform="translate(1.038 8.683)" fill="#ffae39"/></g><g transform="translate(159.963 199.729)"><circle cx="10.526" cy="10.526" r="10.526" fill="#664249"/><g transform="translate(2.224 2.222)"><path d="M1567.452,425.162a6.152,6.152,0,1,0,6.152-6.153A6.153,6.153,0,0,0,1567.452,425.162Z" transform="translate(-1565.303 -416.859)" fill="#fff5e3"/><path d="M1573.893,424.9l7.087-4.811a9.914,9.914,0,0,0-2.935-2.935l-4.81,7.088Z" transform="translate(-1564.375 -417.156)" fill="#fff5e3"/><path d="M1572.686,424.793,1565.6,429.6a9.934,9.934,0,0,0,2.934,2.935l4.81-7.089Z" transform="translate(-1565.6 -415.931)" fill="#fff5e3"/><path d="M1573.235,425.45l4.81,7.089a9.927,9.927,0,0,0,2.935-2.935l-7.088-4.811Z" transform="translate(-1564.375 -415.931)" fill="#fff5e3"/><path d="M1573.343,424.244l-4.81-7.088a9.92,9.92,0,0,0-2.934,2.935l7.087,4.811Z" transform="translate(-1565.6 -417.156)" fill="#fff5e3"/></g></g><g transform="translate(190.352 199.724)"><path d="M1590.937,421.158a10.526,10.526,0,1,0,14.072-4.857A10.529,10.529,0,0,0,1590.937,421.158Z" transform="translate(-1589.873 -415.237)" fill="#664249"/><g transform="translate(0.781 0.783)"><path d="M1594.725,422.649a5.547,5.547,0,1,0,7.416-2.559A5.549,5.549,0,0,0,1594.725,422.649Z" transform="translate(-1589.966 -415.331)" fill="#fff5e3"/><path d="M1600.131,425.043l8.418-1.213a9.862,9.862,0,0,0-1.344-3.9l-7.375,4.238Z" transform="translate(-1589.057 -415.266)" fill="#fff5e3"/><path d="M1598.965,424.286l-8.418,1.213a9.882,9.882,0,0,0,1.344,3.9l7.376-4.238Z" transform="translate(-1590.546 -414.568)" fill="#fff5e3"/><path d="M1598.92,425.5l1.212,8.42a9.866,9.866,0,0,0,3.9-1.344l-4.237-7.376Z" transform="translate(-1589.203 -414.422)" fill="#fff5e3"/><path d="M1599.677,424.331l-1.212-8.42a9.851,9.851,0,0,0-3.9,1.344l4.235,7.376Z" transform="translate(-1589.901 -415.911)" fill="#fff5e3"/></g></g><g transform="translate(13.528 296.605)"><rect width="45.685" height="15.422" transform="translate(0 13.642)" fill="#ff5050"/><rect width="45.685" height="9.886" fill="#ff5050"/></g><path d="M1449.528,538.545v-66.9c-6.865,1.245-12.041,3.771-12.041,7.581v66.246c0,9.9,45.685,9.9,45.685,0v-40.2Z" transform="translate(-1423.959 -206.466)" fill="#7a5353" opacity="0.7" style="mix-blend-mode:multiply;isolation:isolate"/><rect width="12.305" height="4.597" transform="translate(375.072 331.996)" fill="#6a5472"/><rect width="12.305" height="4.597" transform="translate(417.539 331.996)" fill="#6a5472"/></g><rect width="963.525" height="7.66" transform="translate(1236.761 605.179)" fill="#fff5e3"/></g><g transform="translate(34 131)"><circle cx="43" cy="43" r="43" transform="translate(344 1541)" fill="#5bc799"/><g transform="matrix(1, 0, 0, 1, 251.5, 1371)" filter="url(#a)"><circle cx="29.5" cy="29.5" r="29.5" transform="translate(106.5 184)" fill="#fff"/></g></g><g transform="translate(469 -39)"><circle cx="43" cy="43" r="43" transform="translate(344 1541)" fill="#479592"/><g transform="matrix(1, 0, 0, 1, -183.5, 1541)" filter="url(#c)"><circle cx="29.5" cy="29.5" r="29.5" transform="translate(541.5 14)" fill="#fff"/></g></g><g transform="translate(823 88)"><path d="M43,0A43,43,0,1,1,0,43,43,43,0,0,1,43,0Z" transform="translate(344 1541)" fill="#65ccc8"/><g transform="matrix(1, 0, 0, 1, -537.5, 1414)" filter="url(#e)"><circle cx="29.5" cy="29.5" r="29.5" transform="translate(895.5 141)" fill="#fff"/></g></g><path d="M14.375,17.945a8.644,8.644,0,0,1-1.465,5.414,5.113,5.113,0,0,1-4.289,1.875,5.149,5.149,0,0,1-4.266-1.84,8.391,8.391,0,0,1-1.512-5.273V14.98A8.53,8.53,0,0,1,4.326,9.555,5.151,5.151,0,0,1,8.6,7.7a5.156,5.156,0,0,1,4.266,1.834A8.365,8.365,0,0,1,14.375,14.8Zm-3.387-3.453a6.248,6.248,0,0,0-.58-3.091A1.96,1.96,0,0,0,8.6,10.434a1.926,1.926,0,0,0-1.764.921,5.847,5.847,0,0,0-.6,2.88v4.152a6.559,6.559,0,0,0,.568,3.1A1.934,1.934,0,0,0,8.621,22.5a1.9,1.9,0,0,0,1.793-.974,6.4,6.4,0,0,0,.574-2.979ZM24.887,25H21.5V11.945L17.457,13.2V10.445l7.066-2.531h.363Z" transform="translate(405.5 1699)" fill="#12263f"/><path d="M14.375,17.945a8.644,8.644,0,0,1-1.465,5.414,5.113,5.113,0,0,1-4.289,1.875,5.149,5.149,0,0,1-4.266-1.84,8.391,8.391,0,0,1-1.512-5.273V14.98A8.53,8.53,0,0,1,4.326,9.555,5.151,5.151,0,0,1,8.6,7.7a5.156,5.156,0,0,1,4.266,1.834A8.365,8.365,0,0,1,14.375,14.8Zm-3.387-3.453a6.248,6.248,0,0,0-.58-3.091A1.96,1.96,0,0,0,8.6,10.434a1.926,1.926,0,0,0-1.764.921,5.847,5.847,0,0,0-.6,2.88v4.152a6.559,6.559,0,0,0,.568,3.1A1.934,1.934,0,0,0,8.621,22.5a1.9,1.9,0,0,0,1.793-.974,6.4,6.4,0,0,0,.574-2.979ZM28.355,25H16.66V22.68L22.18,16.8a13.617,13.617,0,0,0,1.682-2.168,3.483,3.483,0,0,0,.545-1.758,2.606,2.606,0,0,0-.574-1.787,2.073,2.073,0,0,0-1.641-.65,2.236,2.236,0,0,0-1.811.791,3.133,3.133,0,0,0-.662,2.08h-3.4a5.594,5.594,0,0,1,.744-2.848,5.245,5.245,0,0,1,2.1-2.021A6.394,6.394,0,0,1,22.25,7.7a6.054,6.054,0,0,1,4.1,1.266A4.478,4.478,0,0,1,27.8,12.543a5.737,5.737,0,0,1-.656,2.578A14.327,14.327,0,0,1,24.9,18.18L21.02,22.27h7.336Z" transform="translate(840.5 1529)" fill="#12263f"/><path d="M14.375,17.945a8.644,8.644,0,0,1-1.465,5.414,5.113,5.113,0,0,1-4.289,1.875,5.149,5.149,0,0,1-4.266-1.84,8.391,8.391,0,0,1-1.512-5.273V14.98A8.53,8.53,0,0,1,4.326,9.555,5.151,5.151,0,0,1,8.6,7.7a5.156,5.156,0,0,1,4.266,1.834A8.365,8.365,0,0,1,14.375,14.8Zm-3.387-3.453a6.248,6.248,0,0,0-.58-3.091A1.96,1.96,0,0,0,8.6,10.434a1.926,1.926,0,0,0-1.764.921,5.847,5.847,0,0,0-.6,2.88v4.152a6.559,6.559,0,0,0,.568,3.1A1.934,1.934,0,0,0,8.621,22.5a1.9,1.9,0,0,0,1.793-.974,6.4,6.4,0,0,0,.574-2.979Zm9.117.476h1.8a2.543,2.543,0,0,0,1.91-.645,2.362,2.362,0,0,0,.621-1.711,2.088,2.088,0,0,0-.615-1.605,2.384,2.384,0,0,0-1.693-.574,2.5,2.5,0,0,0-1.629.533,1.7,1.7,0,0,0-.656,1.389H16.461a4.165,4.165,0,0,1,.721-2.4A4.8,4.8,0,0,1,19.2,8.3a6.727,6.727,0,0,1,2.854-.6A6.38,6.38,0,0,1,26.293,9a4.418,4.418,0,0,1,1.535,3.568,3.59,3.59,0,0,1-.715,2.156,4.644,4.644,0,0,1-1.875,1.512,4.24,4.24,0,0,1,2.15,1.547,4.2,4.2,0,0,1,.709,2.438,4.491,4.491,0,0,1-1.658,3.645,6.667,6.667,0,0,1-4.389,1.371,6.322,6.322,0,0,1-4.178-1.348,4.4,4.4,0,0,1-1.623-3.562h3.387a1.962,1.962,0,0,0,.721,1.57,2.656,2.656,0,0,0,1.775.609,2.668,2.668,0,0,0,1.893-.639,2.2,2.2,0,0,0,.686-1.693q0-2.555-2.812-2.555H20.105Z" transform="translate(1194.5 1656)" fill="#12263f"/></g></svg>