<svg xmlns="http://www.w3.org/2000/svg" xmlns:xlink="http://www.w3.org/1999/xlink" width="292.822" height="399.891" viewBox="0 0 292.822 399.891"><defs><clipPath id="a"><rect width="292.822" height="249.729" fill="none"/></clipPath><clipPath id="c"><rect width="292.822" height="160.457" fill="none"/></clipPath><clipPath id="e"><rect width="27.463" height="83.78" fill="none"/></clipPath><clipPath id="f"><rect width="7.096" height="10.205" fill="none"/></clipPath><clipPath id="g"><rect width="10.556" height="9.451" fill="none"/></clipPath><clipPath id="h"><rect width="156.06" height="94.06" fill="none"/></clipPath><clipPath id="i"><rect width="50.453" height="28.951" fill="none"/></clipPath><clipPath id="j"><rect width="0.121" height="0.073" fill="none"/></clipPath><clipPath id="k"><rect width="0.157" height="0.096" fill="none"/></clipPath><clipPath id="l"><rect width="26.432" height="14.718" fill="none"/></clipPath><clipPath id="m"><rect width="40.873" height="22.612" fill="none"/></clipPath><clipPath id="n"><rect width="16.293" height="7.91" fill="none"/></clipPath><clipPath id="o"><rect width="46.085" height="23.95" fill="none"/></clipPath><clipPath id="p"><rect width="36.964" height="24.227" fill="none"/></clipPath><clipPath id="q"><rect width="27.11" height="14.658" fill="none"/></clipPath><clipPath id="r"><rect width="9.485" height="6.541" fill="none"/></clipPath><clipPath id="s"><rect width="26.044" height="15.277" fill="none"/></clipPath><clipPath id="t"><path d="M160.069,130.491l-.048,19.406,55.419,28.915L252.8,154.978l-50.683-28.6-3.658-18.2Z" transform="translate(-160.021 -108.178)" fill="none"/></clipPath><clipPath id="v"><rect width="25.856" height="26.53" fill="none"/></clipPath><clipPath id="w"><path d="M124.282,109.177l-2.727,12.542c0,.675,8.5,9.856,9.174,10.246s1.222.158,1.222-.517V120.6a2.536,2.536,0,0,0-1.222-1.928c-.653-.376-6.067-9.528-6.428-9.528-.012,0-.019.011-.019.033" transform="translate(-121.555 -109.144)" fill="none"/></clipPath><clipPath id="x"><rect width="1.043" height="1.159" fill="none"/></clipPath><clipPath id="y"><path d="M125.313,119.755c-.671,1.091-1.409,2.182-1.738,1.993l-1.547,1.426c-.675-.39-3.487,2.156-3.487,2.831l-1.137,8.212c0,.675,7.005-.81,8.027-2.7v-2.345c.676.39,1.223.158,1.223-.516V117.8c0-.042-.01-.063-.027-.063a12.3,12.3,0,0,0-1.312,2.015" transform="translate(-117.403 -117.74)" fill="none"/></clipPath><clipPath id="z"><rect width="1.043" height="1.158" fill="none"/></clipPath><clipPath id="ab"><rect width="170.853" height="141.687" fill="none"/></clipPath><clipPath id="ad"><rect width="109.509" height="52.599" fill="none"/></clipPath><clipPath id="af"><rect width="31.524" height="16.334" fill="none"/></clipPath><clipPath id="ah"><rect width="23.257" height="43.615" fill="none"/></clipPath><clipPath id="ai"><rect width="7.334" height="9.316" fill="none"/></clipPath><clipPath id="aj"><rect width="11.593" height="10.38" fill="none"/></clipPath><clipPath id="ak"><rect width="30.143" height="67.599" fill="none"/></clipPath><clipPath id="al"><rect width="8.7" height="15.689" fill="none"/></clipPath><clipPath id="am"><rect width="55.335" height="105.032" transform="translate(0 0)" fill="#00cb95"/></clipPath></defs><g transform="translate(-180.093 -4946.361)"><g transform="translate(180.093 4987.497)"><g clip-path="url(#a)"><g clip-path="url(#a)"><g transform="translate(0 89.272)" opacity="0.2"><g clip-path="url(#c)"><path d="M92.245,90.9,48.473,116.337c1.623-4.53-.6-9.429-6.693-12.945-9.614-5.551-25.2-5.551-34.817,0-9.33,5.388-9.266,14.8.086,20.151a32.271,32.271,0,0,0,11.36,3.687,3.175,3.175,0,0,1,1.184,5.89l-4.188,2.433,200.577,115.8L292.822,206.7Z" transform="translate(0 -90.899)" fill="#854228"/></g></g></g><path d="M57.847,46.336l-9.014-7.61,2.344-18.185L43.027,17.1,38.7,32.028l-.326,7.648.573,4.86L54.52,50.618Z" transform="translate(-0.687 -0.306)" fill="#f2f2f2"/><g clip-path="url(#a)"><path d="M26.667,99.715c-.706.963-.665,3.166-.453,5.652.718,2.5,3.1,2.266,5.135,2.548,3.936.544,5.94,3.462,11.163,3.362,3.1-.059,5.162-.76,5.78-2.739.08-.907-.465-1.818-1.581-2.732-7.191-3.073-7.186-3.075-7.356-3.184a36.93,36.93,0,0,1-3.482-2.638c-.066-.245-1.327-5.681-1.327-5.681l-7.665.134Z" transform="translate(-0.467 -1.688)"/><path d="M23.971,40.423l5.517,30.248c-.832,9.213-4.016,18.3-3.162,27.2.674,3.69,8.3,3.136,9.756.418-.5-6.92,3.562-17.175,5.089-28.525.335-11.228.2-22.783-2.088-31.69Z" transform="translate(-0.429 -0.681)" fill="#cf3e00"/><path d="M11.938,111.037c-.707,2.264-.849,2.922-.552,4.6a24.637,24.637,0,0,1,1.043,2.514c.434,1.516.367,4.048,2.624,5.564,2.688,2.123,7.884,2.221,9.52-.043a11.9,11.9,0,0,0-2.094-5.515L19.84,113.25l.168-4.6-7.579-1.665Z" transform="translate(-0.201 -1.915)"/><path d="M11.469,108.437a2.376,2.376,0,0,0,1.016,1.959,3.737,3.737,0,0,0,.906.486c2.379.951,6.3.339,7.6-1.3.751-6.887,3.978-17.326,7.514-28.221.817-5.4,1.451-10.623,1.827-15.611.154-2,.257-3.933.324-5.835,6.452-2.084,7.853-9.657,9.907-11.248-.486-4.347,0-6.262-.464-9.857l-10.49-.243L13.466,38.2c-1.555,5.1-.56,10.2,1.48,15.286L15.6,81.9a102.332,102.332,0,0,0-4.133,26.534" transform="translate(-0.205 -0.684)" fill="#e35b00"/><path d="M13.5,37.669c5.031,4,10.557,5.57,16.258,4.722a26.274,26.274,0,0,0,10.38-4.1,4.11,4.11,0,0,1,.214-1.031c1.4-3.941,9.061-8.928,10.379-16.862l-.817-9.879a18.964,18.964,0,0,0-7.728-1.768c-4.891.022-8.935,2.387-12.641,5.679a13.078,13.078,0,0,0-5.753,2.018,12.5,12.5,0,0,0-2.925,2.681,21.046,21.046,0,0,0-2.881,5c-1.717,3.993-2.866,8.774-4.486,13.54" transform="translate(-0.242 -0.157)" fill="#e35b00"/><g transform="translate(11.264 23.973)" opacity="0.5" style="mix-blend-mode:multiply;isolation:isolate"><g clip-path="url(#e)"><path d="M19.535,81.022c-2.144-5.871-2.121-14.4-1.628-23.492l12.428,7.978c0-.015.324-5.835.324-5.835l8.273-15.823c-3.566,1.834-6.785,2.18-9.2-.958l-.007-.221-.111-4.347-.287-11.167-8.745,2.681-2.63-5.429c-1.716,3.992-2.866,8.773-4.486,13.539-1.554,5.1-.56,10.2,1.481,15.286l.655,28.42a102.416,102.416,0,0,0-4.133,26.534C14.2,97.56,16.986,84.5,19.535,81.022" transform="translate(-11.469 -24.41)" fill="#bd4c00"/></g></g><path d="M64.011,52.427l-.1,2.235-1.167.906-2.217-.094-1.3-.822-1.815-1.646.163-1.013,1.648.15-.121-1.283L57.387,50a17.333,17.333,0,0,1-1.142,1.414c-1.5,1.261-1.432-.266-1.432-.266l.847-1.982-.2-.1.551-1.6,2.131-.6,3.344,1.948Z" transform="translate(-0.981 -0.839)" fill="#ffb294"/><path d="M23.98,16.446c.347-.023,10.239-.5,8.663,14.019L44.526,27.7s6.092-6.468,3.2-12.626a20.353,20.353,0,0,0-5.355-6.329c-4.892.023-8.936,2.387-12.642,5.68a13.078,13.078,0,0,0-5.753,2.018" transform="translate(-0.429 -0.157)" fill="#f2f2f2"/><path d="M37.734,9.925l-2.129,3.741c-1.7,4.542,3.7,8.323,7.024,7.773l3.358-6.056Z" transform="translate(-0.631 -0.178)" fill="#ffb294"/><g transform="translate(36.998 14.406)" opacity="0.5" style="mix-blend-mode:multiply;isolation:isolate"><g clip-path="url(#f)"><path d="M38.113,14.669c-.118,2.223-.916,6.583-.024,8.482,2.486,4.516,5.648-1.106,6.678-2.563Z" transform="translate(-37.672 -14.669)" fill="#ffb294"/></g></g><path d="M37.953,13.448c.347,3.086,1.276,6.028,4.668,8.183a2.341,2.341,0,0,0,2.924-.072l2.767-3.773a10.138,10.138,0,0,0,2.336-4.019L46.439,5.091H39.9l-3.1,4.274Z" transform="translate(-0.659 -0.091)" fill="#ffb294"/><path d="M36.291,12.649l2.592.55a2.224,2.224,0,0,1,2.81-.21,9.935,9.935,0,0,0,6.243,1.97,4.525,4.525,0,0,0,4.443-4.944c-.185-2.481-4.38-8.1-9.219-7.774C37.44,2.628,34.7,6.9,35.782,13.226Z" transform="translate(-0.636 -0.04)"/><path d="M37.336,9.954a1.088,1.088,0,0,0-1.136.4,1.54,1.54,0,0,0-.2.888,4.582,4.582,0,0,0,.451,1.9,2.049,2.049,0,0,0,.478.676.985.985,0,0,0,.766.257c.982-.14.8-1.392.893-2.086a1.886,1.886,0,0,0-1.254-2.042" transform="translate(-0.644 -0.178)" fill="#ffb294"/><g transform="translate(39.862 10.134)" opacity="0.5" style="mix-blend-mode:multiply;isolation:isolate"><g clip-path="url(#g)"><path d="M40.589,11.788c.21,4,2.317,7.839,6.4,7.982L51.145,14.1,49.63,10.319Z" transform="translate(-40.589 -10.319)" fill="#ffb294"/></g></g><path d="M48,12.46a18.822,18.822,0,0,1-6.308-.324c.043.058-.438.026-.393.084,2.475,3.184,5.339,8.055,11.435,6.283,5.377-1.564,2.667-4.422.192-7.607-.053-.068-.111-.133-.165-.2A9.367,9.367,0,0,1,48,12.46" transform="translate(-0.739 -0.191)" fill="#e35b00"/><path d="M41.205,12.028a11.008,11.008,0,0,1-5.212-4.6s.4-7.718,7.377-7.417c11.41.493,9.3,10.5,9.3,10.5-1.848,2.653-6.256,2.521-11.462,1.522" transform="translate(-0.644 0)" fill="#cf3e00"/><path d="M191.759,81.872,178.952,74.43c-1.219-.708-2.906-.61-4.77.466l12.807,7.442c1.863-1.075,3.551-1.174,4.77-.466" transform="translate(-3.117 -1.324)" fill="#00a9d4"/><path d="M178.6,87.2,165.8,79.754l.049,17.17,12.807,7.442Z" transform="translate(-2.967 -1.427)" fill="#1a1a1a"/><path d="M186.839,82.354l-12.807-7.442L165.8,79.667,178.6,87.11Z" transform="translate(-2.967 -1.341)" fill="#0097bd"/><path d="M178.835,87.229l.049,17.17,14.942-8.627-.027-9.465c-.012-4.248-3.023-5.972-6.727-3.833Z" transform="translate(-3.201 -1.46)" fill="#006078"/><path d="M258.966,194.338l4.269-2.481-.16-31.026-4.269,2.481Z" transform="translate(-4.632 -2.878)" fill="#1a1a1a"/><path d="M258.651,163.223l4.269-2.481-8.508-4.911-4.269,2.481Z" transform="translate(-4.477 -2.789)" fill="#4d4d4d"/><path d="M250.143,158.357l3.741,33.093,4.926,2.844-.159-31.026Z" transform="translate(-4.477 -2.834)" fill="#4d4d4d"/><path d="M113.233,110.241l4.269-2.481,3.924-28.668-4.269,2.481Z" transform="translate(-2.027 -1.416)" fill="#1a1a1a"/><path d="M117.073,81.483,121.342,79l-8.516-4.916-4.268,2.481Z" transform="translate(-1.943 -1.326)" fill="#4d4d4d"/><path d="M108.551,76.612l-.335,30.74,4.926,2.844,3.924-28.668Z" transform="translate(-1.937 -1.371)" fill="#4d4d4d"/><path d="M192.382,232.78l4.269-2.481-.16-31.026-4.269,2.481Z" transform="translate(-3.44 -3.566)" fill="#1a1a1a"/><path d="M192.067,201.665l4.269-2.481-8.508-4.911-4.269,2.481Z" transform="translate(-3.285 -3.477)" fill="#4d4d4d"/><path d="M183.56,196.8l3.741,33.093,4.926,2.844-.159-31.026Z" transform="translate(-3.285 -3.522)" fill="#4d4d4d"/><path d="M46.649,148.683l4.269-2.481,3.924-28.668-4.269,2.481Z" transform="translate(-0.835 -2.104)" fill="#1a1a1a"/><path d="M50.489,119.925l4.269-2.481-8.516-4.916-4.268,2.481Z" transform="translate(-0.751 -2.014)" fill="#4d4d4d"/><path d="M41.968,115.054l-.335,30.74,4.926,2.844,3.924-28.668Z" transform="translate(-0.745 -2.059)" fill="#4d4d4d"/><path d="M46.719,132.1l138.725,80.092v-3.183L46.719,128.913Z" transform="translate(-0.836 -2.307)" fill="#4d4d4d"/><path d="M38.122,108.405l68.3-39.692,156.321,90.252-.012,4.2-68.3,39.692L38.11,112.608Z" transform="translate(-0.682 -1.23)" fill="#333"/><path d="M15.687,88.582,92.525,43.929,293.1,159.731l-.019,6.47-76.839,44.653L15.668,95.052Z" transform="translate(-0.28 -0.786)" fill="#0087a9"/><path d="M219.9,212.965l76.839-44.653.018-6.47L219.919,206.5Z" transform="translate(-3.936 -2.897)" fill="#006078"/><path d="M216.264,204.385,293.1,159.731,92.526,43.928,15.687,88.582Z" transform="translate(-0.281 -0.786)" fill="#00a9d4"/><path d="M15.687,89.4l-.019,6.47,200.577,115.8.019-6.47Z" transform="translate(-0.28 -1.6)" fill="#007694"/><path d="M116.542,112.651l22.593-13.13L68.254,58.6,45.662,71.728Z" transform="translate(-0.817 -1.049)" fill="#a6dfed"/><path d="M11.24,47.145l.775.461.3,1.114,1.817,1.187,6.517,3.658,1.211.715.412.218,7.11,4.542,7.923,4.034,7.571,4.663,7.546,4.689L56.4,74.449l3.61,2.6,6.578,3.235,1.344.836,7.825,4.215,6.2,3.949,1.272.86,7.523,4.76,7.7,4.421,8.08,3.744.5.339,6.783,4.857,7.886,4.119,4.215,2.228,3.465,2.229,7.753,4.361,7.716,4.41,1.987,1.09,5.414,3.865,8,3.973.824.545,2.387,1.563.7.436,1.042.642.993.461,1.115.593a2.521,2.521,0,0,0,1.914.7,2.579,2.579,0,0,0,1-.352c.631-.375,1.309-.933,2-1.333a.806.806,0,0,1,.109-.073,11.35,11.35,0,0,0,3.282-2.823,17.262,17.262,0,0,0,3.186-4.8c.57-1.539.17-2.689.157-4.167-.012-1.454.485-3.138-.048-4.01a6.542,6.542,0,0,0-1.781-2.253l-1.526-1.211-1.187-.631-4.966-2.653-2.992-1.7-4.47-3.125-7.923-4.034-7.437-4.907L138.881,97.1l-7.9-4.094L126.7,90.414l-3.21-2.192-3.647-1.793-4.215-2.362-5.148-2.907L107.943,79.6l-2.823-1.635-4.76-3.017-7.8-4.252-7.4-4.918-7.934-4.046-3.8-2.095-3.936-2.277-1.43-.849-6.032-4-7.753-4.349-7.511-4.773-7.813-4.252-2.6-1.405-5.027-3.186L23.439,30.4l-.509-.352-1.987.631-2.144.339-.145.012L16.7,32.972l-.86.848-.134.134-1.138.836-1.551,3.186-.23.472-.243.412-.509.836-.751,4.8v.218Z" transform="translate(-0.201 -0.538)" fill="#854228"/><path d="M167.947,138.014c.218.69.775.908,1.187,1.369a9.738,9.738,0,0,0,.968,1.017,2.067,2.067,0,0,0,.279.218,2.374,2.374,0,0,0,1.648.5,2.579,2.579,0,0,0,1-.352c.631-.375,1.309-.933,2-1.333a.808.808,0,0,1,.109-.073,11.352,11.352,0,0,0,3.282-2.823,17.239,17.239,0,0,0,3.186-4.8c.57-1.539.17-2.689.158-4.167-.013-1.454.484-3.138-.049-4.01-.618-.969-1.235-2.289-2.337-2.459a7.182,7.182,0,0,0-4.083,1.03c-.109.06-.218.109-.315.169a4.341,4.341,0,0,0-.411.279,18.211,18.211,0,0,0-3.259,3.356,15.13,15.13,0,0,0-1.878,2.98l-.036.073c-.278.557-.533,1.126-.763,1.683a7.93,7.93,0,0,0-.509,3.222c-.012.5.025,1.006.025,1.527,0,.872-.424,1.926-.206,2.592" transform="translate(-3.005 -2.167)" fill="#e6ba8a"/><path d="M180.385,123.479c-.026-.131.171-.3.222-.19.295.671.832,1.068.8,2.007a8.849,8.849,0,0,0,.088,3.367c.055.141-.216.372-.271.232a5.5,5.5,0,0,1-.182-2.65,2.712,2.712,0,0,0-.225-1.881,2.283,2.283,0,0,1-.435-.886" transform="translate(-3.228 -2.206)" fill="#8c6239"/><path d="M177.574,136.115c1.439-1.557,4.066-4.731,3.586-6.458-.034-.123.167-.291.217-.185.7,1.511-2.209,5.469-3.722,6.787-.112.1-.188-.029-.081-.144" transform="translate(-3.177 -2.317)" fill="#8c6239"/><path d="M171.082,139.47a2.372,2.372,0,0,0,2.742-.483c.408-.326.786-.729,1.2-1.031a11.94,11.94,0,0,1,1.4-.824c.141-.077.141.136,0,.219a14.6,14.6,0,0,0-2.231,1.6,5.6,5.6,0,0,1-1.395.953,1.594,1.594,0,0,1-1.885-.211c-.063-.072.079-.255.168-.227" transform="translate(-3.059 -2.454)" fill="#8c6239"/><path d="M169.627,130.361c.1-.135.265-.13.186.036a5.756,5.756,0,0,0-.723,2.778c.02.791.166,1.5.157,2.309-.01.866-.328,1.924.055,2.529.3.466.85.652,1.2,1.055.076.086-.122.315-.2.234-.415-.423-1.109-.588-1.369-1.191-.292-.675.019-1.747,0-2.6-.023-1.489-.68-3.231.688-5.151" transform="translate(-3.02 -2.331)" fill="#8c6239"/><path d="M174.007,125.328c1.321-.814,2.583-2.088,3.887-2.393.6-.139,1.837-.345,1.943.335.021.129-.167.3-.216.185-.313-.714-2.131-.207-2.908.257a31.231,31.231,0,0,1-2.706,1.863c-.153.069-.163-.145,0-.247" transform="translate(-3.112 -2.198)" fill="#8c6239"/><path d="M170.293,129.387a10.99,10.99,0,0,1,2.911-3.208c.134-.074.133.123,0,.206a13.819,13.819,0,0,0-2.75,3.117c-.125.154-.276.05-.161-.116" transform="translate(-3.047 -2.258)" fill="#8c6239"/><path d="M174.747,126.089a4.782,4.782,0,0,1,1.768-1.209,4.246,4.246,0,0,1,2.084-.753c1.167.088,1.843,1.3,1.735,2.731-.012.154-.213.269-.228.132-.133-1.258-.5-2.538-1.766-2.537a7.739,7.739,0,0,0-3.51,1.786c-.126.1-.179-.025-.083-.15" transform="translate(-3.127 -2.221)" fill="#8c6239"/><path d="M173.547,127.156c.148-.081.148.14,0,.23a7.941,7.941,0,0,0-2.035,1.859,9.452,9.452,0,0,0-1.341,2.413c-.049.116-.21.177-.2.061.155-1.586,2.238-3.832,3.575-4.563" transform="translate(-3.042 -2.275)" fill="#8c6239"/><path d="M169.8,133.044c0-.13.193-.24.2-.114a2.721,2.721,0,0,1,0,.981c-.036.116-.157.186-.193.112a2.72,2.72,0,0,1,0-.979" transform="translate(-3.038 -2.378)" fill="#8c6239"/><path d="M169.83,135.234c-.011-.127.191-.261.226-.161a3.629,3.629,0,0,1,.055,1.171,1.2,1.2,0,0,0,.787,1.288,1.739,1.739,0,0,1,.7.347,4.681,4.681,0,0,1,.415.863c.074.132-.217.418-.3.3-.266-.35-.337-.805-.753-1.008-.3-.145-.655-.182-.879-.439-.48-.552-.173-1.516-.247-2.365" transform="translate(-3.039 -2.417)" fill="#8c6239"/><path d="M172.961,138.118a6.011,6.011,0,0,0,2.32-1.1,15.248,15.248,0,0,0,2.743-2.572c.088-.1.16-.015.078.088a12.2,12.2,0,0,1-3.137,2.925c-.482.295-1.827,1.216-2.158.9-.059-.056.062-.255.154-.243" transform="translate(-3.092 -2.405)" fill="#8c6239"/><path d="M178.62,133.633a2.967,2.967,0,0,1,.464-.662,4.592,4.592,0,0,0,1.19-2.275c.185-1.119-.235-1.9-.2-2.938.007-.168.236-.295.252-.145a7.262,7.262,0,0,1,.06,3.623,6.361,6.361,0,0,1-1.682,2.46c-.061.058-.126.013-.087-.063" transform="translate(-3.197 -2.283)" fill="#8c6239"/><path d="M177.1,126.055c.835-.565,1.573-.52,1.923.033a2.343,2.343,0,0,1,.229,1.273c-.014.684.045,1.3.062,1.96,0,.1-.16.218-.176.126-.256-1.52.306-4.341-2.038-3.146-.16.082-.157-.14,0-.247" transform="translate(-3.167 -2.249)" fill="#8c6239"/><path d="M174.934,135.843a7.707,7.707,0,0,0,2.382-2.049,11.339,11.339,0,0,0,1.053-1.351,3.908,3.908,0,0,0,.579-2.073c.011-.142.193-.245.208-.121.146,1.2-.465,2.237-1.524,3.5-.726.864-1.885,2.275-2.746,2.3-.08,0-.047-.156.048-.2" transform="translate(-3.129 -2.33)" fill="#8c6239"/><path d="M171.009,132.971c.073-.13.225-.124.191,0-.354,1.258.3,1.7.688,2.408.408.745.406,2.2,1.89,1.188.1-.067.117.081.023.157a1.764,1.764,0,0,1-1.4.484c-.507-.141-.495-.875-.685-1.355-.3-.751-1.5-1.462-.709-2.883" transform="translate(-3.056 -2.378)" fill="#8c6239"/><path d="M176.217,126.879c.094-.049.1.087,0,.149a23.28,23.28,0,0,0-2.732,1.772,6.156,6.156,0,0,0-1.867,3.054c-.054.194-.28.256-.252.076.381-2.6,3-4.1,4.852-5.051" transform="translate(-3.067 -2.271)" fill="#8c6239"/><path d="M174.713,128.838c1.167-.73,2.939-1.755,3.4-.681.251.594.479,2.706-.549,3.59-.084.072-.174.023-.12-.086a4.187,4.187,0,0,0,.393-3.194c-.4-1.008-2.058.04-3.119.6-.148.079-.148-.137,0-.23" transform="translate(-3.125 -2.285)" fill="#8c6239"/><path d="M174.643,135.272c.347-.339.731-.576,1.082-.915a5.569,5.569,0,0,0,1.065-1.45c.079-.152.253-.16.182,0a5.6,5.6,0,0,1-2.3,2.548c-.117.057-.134-.079-.027-.184" transform="translate(-3.124 -2.377)" fill="#8c6239"/><path d="M173.691,130c.112-.139.274-.08.191.081a10.733,10.733,0,0,1-.6.923,3.448,3.448,0,0,0-.667,2.025,3.838,3.838,0,0,0,1.042,2.378c.077.108-.126.336-.224.26a3.028,3.028,0,0,1-1.164-2.707,5.315,5.315,0,0,1,1.422-2.96" transform="translate(-3.083 -2.325)" fill="#8c6239"/><path d="M175.023,133.448a3.829,3.829,0,0,0,1.448-2.234c.235-.985-.117-1.43-.815-1.5-.131-.013-.019-.254.121-.275.889-.133,1.228.64.976,1.687a4.1,4.1,0,0,1-1.729,2.577c-.161.072-.17-.147,0-.258" transform="translate(-3.13 -2.316)" fill="#8c6239"/><path d="M173.475,131.845c.17-.815.879-1.287,1.488-1.822.15-.133.2.058.063.193-.455.441-1.1.837-1.276,1.472-.226.834-.065,1.736.416,1.992.083.044-.027.279-.141.264-.7-.09-.734-1.228-.55-2.1" transform="translate(-3.103 -2.326)" fill="#8c6239"/><path d="M175.383,131.972a.922.922,0,0,0,.08-.386c0-.227-.089-.483-.339-.4-.127.044-.1-.184.031-.249.406-.2.582.1.594.457.01.271-.184,1.025-.583,1.118-.084.02-.125-.066-.054-.175a2.783,2.783,0,0,0,.271-.366" transform="translate(-3.133 -2.342)" fill="#8c6239"/><g transform="translate(11.04 44.175)" opacity="0.5" style="mix-blend-mode:multiply;isolation:isolate"><g clip-path="url(#h)"><path d="M28.784,54.241l-7.971-6.35L11.29,44.98l-.049,2.434.771.459.307,1.115,1.817,1.189,6.521,3.653,1.211.713.4.219L29.387,59.3l7.92,4.041L44.88,68.01l7.55,4.681L56.4,74.714,60.01,77.32l6.579,3.238,1.34.83L75.762,85.6l6.194,3.953,1.278.864,7.518,4.76,7.7,4.418,8.09,3.748.5.328,6.775,4.862,7.888,4.12,4.224,2.229,3.453,2.231,7.755,4.352,7.718,4.414,1.986,1.091,5.417,3.868,7.989,3.97.83.549,2.387,1.56.7.433L165.2,138l.992.461,1.1.582a9.683,9.683,0,0,1-.975-1.024c-.407-.459-.968-.672-1.188-1.358-.214-.669.212-1.724.21-2.592,0-.532-.029-1.039-.022-1.537l-.918-.712-3.963-1.421-4.156-2.008-10.664-7.6-6.2-4.42-10.974-2.8-13.309-10.09-9.952-6.095-9.422-3.958L81.238,86.317,74.171,80.1l-6.185-2.005L65.5,77.231,60.594,74.4,46.442,65.135,39.32,59.009Z" transform="translate(-11.241 -44.98)" fill="#3b1c10"/></g></g><g transform="translate(115.979 97.871)" opacity="0.5" style="mix-blend-mode:multiply;isolation:isolate"><g clip-path="url(#i)"><path d="M118.093,99.655c4.215,3.392,8.528,6.638,12.828,9.9l.048.036.074.025c1.962.775,3.936,1.514,5.911,2.277l5.826,2.241c-.024-.025-.06-.049-.084-.073l.158.1-.074-.024c1.854,1.513,3.732,3,5.609,4.506,1.914,1.526,3.8,3.065,5.718,4.579l.073.049.048.024c4.748,1.818,9.5,3.635,14.283,5.318.012-.025.024-.048.036-.073-4.591-2.132-9.231-4.131-13.87-6.129.012.025.036.036.048.048l-.121-.073a.16.16,0,0,0,.073.025c-1.853-1.551-3.719-3.077-5.584-4.628s-3.744-3.113-5.645-4.651l-.084-.061-.085-.036-5.936-2.18c-1.986-.715-3.949-1.454-5.936-2.168-4.409-3.052-8.818-6.1-13.312-9.025" transform="translate(-118.093 -99.655)" fill="#3b1c10"/></g></g><g transform="translate(152.49 120.596)" opacity="0.5" style="mix-blend-mode:multiply;isolation:isolate"><g clip-path="url(#j)"><path d="M155.342,122.819a.164.164,0,0,1-.073-.025l.121.073c-.012-.012-.036-.024-.048-.048" transform="translate(-155.269 -122.794)" fill="#3b1c10"/></g></g><g transform="translate(140.582 112.275)" opacity="0.5" style="mix-blend-mode:multiply;isolation:isolate"><g clip-path="url(#k)"><path d="M143.144,114.321c.025.025.061.048.084.073l.073.025Z" transform="translate(-143.144 -114.321)" fill="#3b1c10"/></g></g><g transform="translate(133.463 104.176)" opacity="0.5" style="mix-blend-mode:multiply;isolation:isolate"><g clip-path="url(#l)"><path d="M162.327,120.792q-2.135-1.173-4.315-2.244c-1.459-.7-2.9-1.434-4.376-2.1l.127.078c-2.021-1.756-4.085-3.461-6.168-5.141l-.054-.043-.053-.027c-1.9-.943-3.808-1.857-5.743-2.723-.969-.431-1.921-.895-2.9-1.3s-1.95-.838-2.945-1.216c.892.581,1.81,1.113,2.717,1.665s1.84,1.053,2.76,1.582c1.839,1.054,3.7,2.06,5.583,3.038l-.107-.07c2.052,1.72,4.123,3.414,6.236,5.058l.069.054.058.024c1.5.618,3.02,1.168,4.527,1.754s3.045,1.11,4.588,1.614" transform="translate(-135.895 -106.074)" fill="#3b1c10"/></g></g><g transform="translate(69.05 71.831)" opacity="0.5" style="mix-blend-mode:multiply;isolation:isolate"><g clip-path="url(#m)"><path d="M111.181,95.752c-1.746-.661-3.513-1.257-5.27-1.884-1.763-.609-3.536-1.183-5.3-1.777l.165.091C98.222,89.777,95.615,87.435,93,85.1l-.128-.114-.178-.028c-2.688-.434-5.384-.815-8.078-1.213l.268.116Q81.3,81.1,77.657,78.424q-3.621-2.711-7.349-5.284,3.391,3,6.875,5.888,3.466,2.907,6.994,5.735l.115.091.153.025c2.69.424,5.377.865,8.073,1.252l-.3-.142c2.635,2.312,5.277,4.615,7.976,6.855l.084.071.081.022c1.8.486,3.594.991,5.4,1.461,1.81.452,3.61.936,5.43,1.354" transform="translate(-70.308 -73.14)" fill="#3b1c10"/></g></g><g transform="translate(156.002 112.505)" opacity="0.5" style="mix-blend-mode:multiply;isolation:isolate"><g clip-path="url(#n)"><path d="M158.846,114.555c.823.5,1.682.92,2.531,1.369s1.72.86,2.593,1.259c1.72.788,3.452,1.551,5.222,2.254,1.719,1.054,3.452,2.083,5.22,3.028a3.945,3.945,0,0,1,.412-.278c.1-.061.205-.109.315-.17-1.744-1.272-3.539-2.459-5.355-3.622a.568.568,0,0,0-.1-.048c-1.756-.74-3.549-1.43-5.342-2.072-.908-.326-1.816-.63-2.724-.92-.922-.266-1.841-.57-2.774-.8" transform="translate(-158.845 -114.555)" fill="#3b1c10"/></g></g><g transform="translate(98.011 80.226)" opacity="0.5" style="mix-blend-mode:multiply;isolation:isolate"><g clip-path="url(#o)"><path d="M145.882,105.638c-2.72-1.732-5.459-3.438-8.231-5.083-2.764-1.663-5.533-3.317-8.327-4.926-2.86-1.483-5.762-2.888-8.664-4.293s-5.813-2.789-8.736-4.149l.132.094-5.8-5.5-.092-.087-.108,0c-2.086.093-4.172.152-6.259.282,2.087.13,4.173.189,6.259.283l-.2-.083,5.5,5.8.049.052.083.042q4.3,2.2,8.629,4.327l8.676,4.231c2.813,1.561,5.651,3.076,8.494,4.583,2.834,1.525,5.7,2.989,8.59,4.426" transform="translate(-99.797 -81.688)" fill="#3b1c10"/></g></g><g transform="translate(27.752 47.604)" opacity="0.5" style="mix-blend-mode:multiply;isolation:isolate"><g clip-path="url(#p)"><path d="M65.221,72.7c-2.969-2.223-6.006-4.342-9.055-6.44l.112.1c-1.746-2.41-3.537-4.786-5.344-7.148l-.107-.14-.175-.06c-2.617-.9-5.249-1.75-7.879-2.607s-5.278-1.664-7.932-2.449l.138.081q-3.3-2.846-6.722-5.567,3.046,3.13,6.2,6.143l.05.048.088.033q3.892,1.447,7.815,2.8c2.619.892,5.236,1.789,7.869,2.642l-.282-.2c1.827,2.348,3.67,4.683,5.558,6.984l.058.07.055.034c3.154,1.94,6.32,3.859,9.554,5.674" transform="translate(-28.258 -48.472)" fill="#3b1c10"/></g></g><g transform="translate(12.347 37.437)" opacity="0.5" style="mix-blend-mode:multiply;isolation:isolate"><g clip-path="url(#q)"><path d="M12.573,39c2.6,1.5,5.221,2.932,7.85,4.361l.059.036.061.013c2.387.666,4.785,1.332,7.2,1.95,1.939,1.284,3.924,2.507,5.887,3.755,1.987,1.26,4.022,2.471,6.057,3.658-1.864-1.454-3.731-2.882-5.644-4.264s-3.815-2.773-5.754-4.106l-.061-.048-.1-.025c-2.387-.715-4.8-1.393-7.2-2.059-2.593-1.381-5.2-2.75-7.825-4.082l-.06-.073-.231.472Z" transform="translate(-12.573 -38.119)" fill="#3b1c10"/></g></g><g transform="translate(15.642 32.434)" opacity="0.5" style="mix-blend-mode:multiply;isolation:isolate"><g clip-path="url(#r)"><path d="M15.927,33.873c3.077,2.023,6.2,3.974,9.485,5.693-2.763-2.35-5.67-4.494-8.625-6.541Z" transform="translate(-15.927 -33.025)" fill="#3b1c10"/></g></g><g transform="translate(52.383 52.092)" opacity="0.5" style="mix-blend-mode:multiply;isolation:isolate"><g clip-path="url(#s)"><path d="M79.381,68.318c-1.435-.795-2.884-1.56-4.352-2.282S72.1,64.564,70.6,63.927c-2.986-1.332-6.009-2.576-9.047-3.78l.173.113c-1.351-1.252-2.739-2.466-4.131-3.675s-2.808-2.393-4.257-3.543c1.218,1.393,2.455,2.764,3.743,4.084s2.552,2.661,3.868,3.951l.07.068.1.045c3,1.3,6.01,2.552,9.061,3.721l4.575,1.758c1.525.587,3.068,1.133,4.625,1.65" transform="translate(-53.338 -53.041)" fill="#3b1c10"/></g></g><path d="M156.309,151.9l3.647-2.119,38.387-22.313,3.635-2.109.073-23.622L156.37,128.281Z" transform="translate(-2.798 -1.821)" fill="#006078"/><path d="M160.021,149.9l38.388-22.313.048-19.405-38.388,22.312Z" transform="translate(-2.864 -1.936)" fill="#1a1a1a"/><path d="M152.183,70.1a2.45,2.45,0,0,1,2.47.242L197.705,95.2a7.6,7.6,0,0,1,3.447,5.971l-45.671,26.541a7.594,7.594,0,0,0-3.448-5.971L108.982,96.884a2.448,2.448,0,0,0-2.47-.242Z" transform="translate(-1.906 -1.25)" fill="#0097bd"/><path d="M108.962,97.366c-1.911-1.1-3.472-.224-3.479,1.973l-.067,23.618L155.4,151.812l.067-23.619a7.593,7.593,0,0,0-3.447-5.971Z" transform="translate(-1.887 -1.734)" fill="#007694"/><path d="M197.056,99.505a3.307,3.307,0,0,0-1.016-1.089l-42.677-24.64L114.936,96.107,154,118.663a10.59,10.59,0,0,1,3.678,3.724Z" transform="translate(-2.057 -1.32)" fill="#00a9d4"/><path d="M94.149,100.08l3.294,1.9-.984-3.975-1.326-.766Z" transform="translate(-1.685 -1.74)" fill="#1a1a1a"/><path d="M72.442,87.491l3.294,1.9-.984-3.975-1.326-.765Z" transform="translate(-1.297 -1.515)" fill="#1a1a1a"/><path d="M50.734,74.9l3.294,1.9-.984-3.975-1.326-.765Z" transform="translate(-0.908 -1.29)" fill="#1a1a1a"/><path d="M247.319,189.48l20.29-11.757-77.264-44.6-20.29,11.757Z" transform="translate(-3.044 -2.383)" fill="#a6dfed"/><path d="M218.543,173.015l3.294,1.9-.984-3.975-1.326-.766Z" transform="translate(-3.911 -3.046)" fill="#1a1a1a"/><path d="M196.835,160.426l3.294,1.9-.984-3.975-1.326-.765Z" transform="translate(-3.523 -2.82)" fill="#1a1a1a"/><path d="M175.128,147.836l3.294,1.9-.984-3.975L176.112,145Z" transform="translate(-3.134 -2.595)" fill="#1a1a1a"/><path d="M242.56,183.531l-1.325-.765-.985,2.838,3.294,1.9Z" transform="translate(-4.3 -3.271)" fill="#1a1a1a"/><path d="M239.44,161.114l3.294,1.9-.984-3.975-1.326-.765Z" transform="translate(-4.285 -2.833)" fill="#1a1a1a"/><path d="M217.732,148.525l3.294,1.9-.984-3.975-1.326-.766Z" transform="translate(-3.897 -2.607)" fill="#1a1a1a"/><path d="M196.024,135.935l3.294,1.9-.984-3.975-1.326-.765Z" transform="translate(-3.508 -2.382)" fill="#1a1a1a"/><path d="M263.457,171.63l-1.325-.765-.985,2.838,3.294,1.9Z" transform="translate(-4.674 -3.058)" fill="#1a1a1a"/></g><g transform="translate(157.157 106.242)"><g clip-path="url(#t)"><path d="M103.092,77.712l2.749-1.576,113.694,65.213-2.749,1.576Z" transform="translate(-159.002 -107.605)" fill="#f5d5b3"/><path d="M218.858,144.113l2.749-1.576v13.8l-2.749,1.577Z" transform="translate(-161.074 -108.793)" fill="#e6ba8a"/><path d="M103.092,77.741l113.694,65.213v13.8L103.092,91.541Z" transform="translate(-159.002 -107.633)" fill="#bd8b55"/><path d="M98.621,80.295l2.749-1.576,113.694,65.213-2.749,1.576Z" transform="translate(-158.922 -107.651)" fill="#f5d5b3"/><path d="M214.387,146.7l2.749-1.576v13.8l-2.749,1.577Z" transform="translate(-160.994 -108.839)" fill="#e6ba8a"/><path d="M98.621,80.324l113.694,65.213v13.8L98.621,94.123Z" transform="translate(-158.922 -107.679)" fill="#bd8b55"/><path d="M94.149,82.877,96.9,81.3l113.694,65.213-2.749,1.576Z" transform="translate(-158.842 -107.697)" fill="#f5d5b3"/><path d="M209.916,149.278l2.749-1.576v13.8l-2.749,1.577Z" transform="translate(-160.914 -108.885)" fill="#e6ba8a"/><path d="M94.149,82.906l113.694,65.213v13.8L94.149,96.706Z" transform="translate(-158.842 -107.726)" fill="#bd8b55"/></g></g><g clip-path="url(#a)"><g transform="translate(157.206 113.526)" opacity="0.2" style="mix-blend-mode:multiply;isolation:isolate"><g clip-path="url(#v)"><path d="M173.623,142.125V128.6l11.624-6.814.68-6.189-25.856,15.029v9.68Z" transform="translate(-160.071 -115.595)" fill="#3b1c10"/></g></g><path d="M140.171,128.593v7.36a2.694,2.694,0,0,0,1.221,2.113l3.421,1.975.764,2.93,2.512-1.451a.857.857,0,0,0,.357-.79V129.193a2.7,2.7,0,0,0-1.221-2.114l-5.834-3.368a.858.858,0,0,0-.863-.085l-2.512,1.45Z" transform="translate(-2.47 -2.211)" fill="#006078"/><path d="M144.706,142.911l-5.835-3.369a2.7,2.7,0,0,1-1.22-2.113V125.891c0-.778.546-1.094,1.22-.7l5.835,3.368a2.7,2.7,0,0,1,1.22,2.114v11.538c0,.778-.546,1.093-1.22.7" transform="translate(-2.464 -2.238)" fill="#ccc"/><path d="M144.686,132.1l-5.745-3.318v-2.171l5.745,3.317Z" transform="translate(-2.487 -2.266)" fill="#00a9d4"/><path d="M139.251,129.963l.987.57a.689.689,0,0,1,.311.54v1.009c0,.2-.139.28-.311.18l-.987-.57a.688.688,0,0,1-.311-.539v-1.01c0-.2.139-.279.311-.18" transform="translate(-2.487 -2.325)" fill="#ed1c24"/><path d="M141.357,131.179l.987.57a.689.689,0,0,1,.311.54V133.3c0,.2-.139.28-.311.18l-.987-.57a.688.688,0,0,1-.311-.539v-1.01c0-.2.139-.279.311-.18" transform="translate(-2.524 -2.347)" fill="#4d4d4d"/><path d="M143.462,132.394l.987.57a.689.689,0,0,1,.311.54v1.009c0,.2-.139.28-.311.18l-.987-.57a.688.688,0,0,1-.311-.539v-1.01c0-.2.139-.279.311-.18" transform="translate(-2.562 -2.369)" fill="#fff"/><path d="M139.251,132.262l.987.57a.689.689,0,0,1,.311.54v1.009c0,.2-.139.28-.311.18l-.987-.57a.688.688,0,0,1-.311-.539v-1.01c0-.2.139-.279.311-.18" transform="translate(-2.487 -2.366)" fill="#4d4d4d"/><path d="M141.357,133.477l.987.57a.689.689,0,0,1,.311.54V135.6c0,.2-.139.28-.311.18l-.987-.57a.688.688,0,0,1-.311-.539v-1.01c0-.2.139-.279.311-.18" transform="translate(-2.524 -2.388)" fill="#4d4d4d"/><path d="M143.462,134.693l.987.57a.689.689,0,0,1,.311.54v1.009c0,.2-.139.28-.311.18l-.987-.57a.688.688,0,0,1-.311-.539v-1.01c0-.2.139-.279.311-.18" transform="translate(-2.562 -2.41)" fill="#4d4d4d"/><path d="M139.251,134.56l.987.57a.689.689,0,0,1,.311.54v1.009c0,.2-.139.28-.311.18l-.987-.57a.688.688,0,0,1-.311-.539v-1.01c0-.2.139-.279.311-.18" transform="translate(-2.487 -2.407)" fill="#4d4d4d"/><path d="M141.357,135.776l.987.57a.689.689,0,0,1,.311.54v1.009c0,.2-.139.28-.311.18l-.987-.57a.688.688,0,0,1-.311-.539v-1.01c0-.2.139-.279.311-.18" transform="translate(-2.524 -2.429)" fill="#4d4d4d"/><path d="M143.462,136.991l.987.57a.689.689,0,0,1,.311.54v1.009c0,.2-.139.28-.311.18l-.987-.57a.688.688,0,0,1-.311-.539v-1.01c0-.2.139-.279.311-.18" transform="translate(-2.562 -2.451)" fill="#4d4d4d"/><path d="M139.251,136.858l.987.57a.69.69,0,0,1,.311.541v1.009c0,.2-.139.279-.311.18l-.987-.571a.687.687,0,0,1-.311-.538v-1.01c0-.2.139-.28.311-.181" transform="translate(-2.487 -2.449)" fill="#4d4d4d"/><path d="M141.357,138.074l.987.57a.689.689,0,0,1,.311.54v1.009c0,.2-.139.28-.311.18l-.987-.57a.688.688,0,0,1-.311-.539v-1.01c0-.2.139-.279.311-.18" transform="translate(-2.524 -2.47)" fill="#4d4d4d"/><path d="M143.462,139.289l.987.57a.69.69,0,0,1,.311.541v1.009c0,.2-.139.279-.311.18l-.987-.571a.687.687,0,0,1-.311-.538v-1.01c0-.2.139-.28.311-.181" transform="translate(-2.562 -2.492)" fill="#4d4d4d"/><path d="M130.874,132.136c.675.39,1.222.158,1.222-.517V120.77a2.533,2.533,0,0,0-1.222-1.927c-.675-.39-1.222-.159-1.222.516v10.849a2.534,2.534,0,0,0,1.222,1.928" transform="translate(-2.32 -2.124)" fill="#1a1a1a"/><path d="M125.554,129.131c.675.39,1.222.158,1.222-.517V117.765a2.536,2.536,0,0,0-1.222-1.928c-.675-.389-1.222-.158-1.222.517V127.2a2.536,2.536,0,0,0,1.222,1.928" transform="translate(-2.225 -2.07)" fill="#1a1a1a"/><path d="M110.174,119.767c0-.407.247-.594.552-.417l4.9,2.831a1.323,1.323,0,0,1,.552,1.055c0,.407-.247.594-.552.417l-4.9-2.83a1.326,1.326,0,0,1-.552-1.056" transform="translate(-1.972 -2.135)" fill="#1a1a1a"/><path d="M110.174,117.508c0-.407.247-.594.552-.417l4.9,2.831a1.323,1.323,0,0,1,.552,1.055c0,.407-.247.594-.552.418l-4.9-2.831a1.326,1.326,0,0,1-.552-1.056" transform="translate(-1.972 -2.094)" fill="#1a1a1a"/><path d="M110.174,115.249c0-.407.247-.593.552-.417l4.9,2.831a1.323,1.323,0,0,1,.552,1.055c0,.407-.247.594-.552.418l-4.9-2.831a1.326,1.326,0,0,1-.552-1.056" transform="translate(-1.972 -2.054)" fill="#1a1a1a"/><path d="M110.174,112.99c0-.407.247-.593.552-.417l4.9,2.831a1.323,1.323,0,0,1,.552,1.055c0,.407-.247.594-.552.417l-4.9-2.83a1.326,1.326,0,0,1-.552-1.056" transform="translate(-1.972 -2.014)" fill="#1a1a1a"/><path d="M110.174,110.731c0-.407.247-.594.552-.417l4.9,2.831a1.323,1.323,0,0,1,.552,1.055c0,.407-.247.594-.552.417l-4.9-2.83a1.326,1.326,0,0,1-.552-1.056" transform="translate(-1.972 -1.973)" fill="#1a1a1a"/><path d="M110.174,108.473c0-.407.247-.594.552-.417l4.9,2.831a1.323,1.323,0,0,1,.552,1.055c0,.407-.247.594-.552.417l-4.9-2.83a1.326,1.326,0,0,1-.552-1.056" transform="translate(-1.972 -1.933)" fill="#1a1a1a"/><path d="M110.174,106.214c0-.407.247-.594.552-.417l4.9,2.831a1.323,1.323,0,0,1,.552,1.055c0,.408-.247.594-.552.418l-4.9-2.831a1.326,1.326,0,0,1-.552-1.056" transform="translate(-1.972 -1.892)" fill="#1a1a1a"/><path d="M110.174,103.955c0-.407.247-.593.552-.417l4.9,2.831a1.323,1.323,0,0,1,.552,1.055c0,.408-.247.594-.552.418l-4.9-2.831a1.326,1.326,0,0,1-.552-1.056" transform="translate(-1.972 -1.852)" fill="#1a1a1a"/></g><g transform="translate(119.38 107.191)"><g clip-path="url(#w)"><rect width="0.982" height="10.108" transform="matrix(0.741, -0.672, 0.672, 0.741, 3.95, 6.718)" fill="#ccc"/><path d="M124.016,115.614a1.9,1.9,0,1,0,1.9-1.9,1.9,1.9,0,0,0-1.9,1.9" transform="translate(-121.599 -109.226)" fill="#ed1c24"/><g transform="translate(2.701 5.211)" opacity="0.5"><g clip-path="url(#x)"><path d="M124.523,115.554a.619.619,0,1,0-.122-.77.558.558,0,0,0,.122.77" transform="translate(-124.305 -114.45)" fill="#f2f2f2"/></g></g></g></g><g transform="translate(115.302 115.633)"><g clip-path="url(#y)"><rect width="9.688" height="0.982" transform="translate(3.701 12.556) rotate(-50.151)" fill="#ccc"/><path d="M119.623,130.809a1.9,1.9,0,1,0,1.9-1.9,1.9,1.9,0,0,0-1.9,1.9" transform="translate(-117.443 -117.94)" fill="#ed1c24"/><g transform="translate(2.496 11.819)" opacity="0.5"><g clip-path="url(#z)"><path d="M120.163,130.877a.619.619,0,1,0-.122-.77.558.558,0,0,0,.122.77" transform="translate(-119.944 -129.774)" fill="#f2f2f2"/></g></g></g></g><g clip-path="url(#a)"><path d="M34.255,56.215,36.714,58.1,40,59.334l1.213.51,1.6,1.581c.665.786-.308,1.416-1.19.818L39.445,61.1l.18,2.662,1.058,1.653,2.393,1.544-2.486.168-4.681-.973-1.934-2.067L31.7,58.438Z" transform="translate(-0.567 -1.006)" fill="#ffb294"/><path d="M29.445,27.064l-1.2,16.76,8.219,13.617c-2.51,0-4.107,1.678-3.831,3.655-5.576-3.437-9.086-6.515-13.412-13.589-1.434-5.6-1.445-12.943-1.106-20.718,1.106-12.528,12.339-6.856,11.327.276" transform="translate(-0.321 -0.347)" fill="#f2f2f2"/></g></g></g><g transform="translate(272.41 5204.564)"><g transform="translate(0)" clip-path="url(#ab)"><g clip-path="url(#ab)"><g transform="translate(49.296 86.66)" opacity="0.2"><g clip-path="url(#ad)"><path d="M152.864,92.654c-9.575-5.8-25.485-5.886-35.242-.251-5.329,3.076-7.7,7.213-7.12,11.234-8.483-1.551-18.13-.395-24.857,3.488a19.743,19.743,0,0,0-3.231,2.3l-4.06-2.345-28.16,16.258,30.294,17.5,17.163-9.807c7.955,1.029,16.619-.23,22.809-3.8a16.059,16.059,0,0,0,5.776-5.263,11.688,11.688,0,0,1,9.769-5.316,35.052,35.052,0,0,0,16.434-4.144c9.458-5.46,9.765-14.19.425-19.849" transform="translate(-50.194 -88.239)" fill="#854228"/></g></g></g><path d="M100.022,35.567l.418,6.633,2.828-.637L120.38,37.7l14.412-5.936,3.446-1.414,1.215-17.121-21.315,14.76Z" transform="translate(-1.79 -0.237)" fill="#f2f2f2"/><g clip-path="url(#ab)"><g transform="translate(101.479 24.992)" opacity="0.2" style="mix-blend-mode:multiply;isolation:isolate"><g clip-path="url(#af)"><path d="M103.328,39.431v2.35l17.111-3.865,14.412-5.936-1.265-6.534c-2.162,4.074-5.737,7.221-11.275,9.044Z" transform="translate(-103.328 -25.447)" fill="#bd4c00"/></g></g></g><path d="M69.173,98.279l0,1.667-33.8,19.741,0-1.667Z" transform="translate(-0.633 -1.759)" fill="#f5d5b3"/><path d="M35.257,118.314l0,1.667-6.285-3.629,0-1.667Z" transform="translate(-0.518 -2.053)" fill="#e6ba8a"/><path d="M69.058,98.213l-33.8,19.741-6.285-3.629,33.8-19.741Z" transform="translate(-0.518 -1.693)" fill="#bd8b55"/><path d="M66.009,83.905l0,1.667L6.4,120.21l0-1.667Z" transform="translate(-0.115 -1.502)" fill="#f5d5b3"/><path d="M0,117.146l6.285,3.629,0-1.667L0,115.479Z" transform="translate(0 -2.067)" fill="#e6ba8a"/><path d="M0,114.848l6.286,3.629,59.6-34.638L59.609,80.21Z" transform="translate(0 -1.436)" fill="#bd8b55"/><g clip-path="url(#ab)"><path d="M165.616,89.3a1.059,1.059,0,0,0,.53-1.976l-13.763-7.945a1.059,1.059,0,1,0-1.059,1.834l13.763,7.946a1.054,1.054,0,0,0,.528.141" transform="translate(-2.699 -1.418)" fill="#5e3930"/><path d="M140.591,89.3a1.053,1.053,0,0,0,.528-.141l13.763-7.946a1.058,1.058,0,1,0-1.058-1.834L140.06,87.329a1.059,1.059,0,0,0,.53,1.976" transform="translate(-2.497 -1.418)" fill="#5e3930"/><path d="M163.185,72.023l5.254-.118,1.647,35.829a.927.927,0,0,1-.551.8,2.94,2.94,0,0,1-2.661,0,.958.958,0,0,1-.541-.713c-.007,0-3.149-35.8-3.149-35.8" transform="translate(-2.921 -1.287)" fill="#855044"/><path d="M143.076,72.023l-5.254-.118-1.647,35.829a.929.929,0,0,0,.551.8,2.938,2.938,0,0,0,2.66,0,.957.957,0,0,0,.542-.713c.007,0,3.149-35.8,3.149-35.8" transform="translate(-2.437 -1.287)" fill="#855044"/><path d="M153.462,98.731a1.051,1.051,0,0,0,.528-.141l12.185-7.035a1.059,1.059,0,1,0-1.059-1.835l-12.185,7.035a1.059,1.059,0,0,0,.53,1.976" transform="translate(-2.728 -1.603)" fill="#5e3930"/><path d="M153,98.863a1.059,1.059,0,0,0,.53-1.976L141.12,89.72a1.059,1.059,0,1,0-1.059,1.835l12.412,7.166a1.054,1.054,0,0,0,.528.141" transform="translate(-2.497 -1.603)" fill="#5e3930"/><path d="M150.571,79.242h5.258l-.738,37.189a.943.943,0,0,1-.55.754,2.936,2.936,0,0,1-2.661,0,.935.935,0,0,1-.548-.754l-.761-37.188" transform="translate(-2.695 -1.418)" fill="#855044"/><path d="M138.746,71.86a13.716,13.716,0,0,1,2.728-2.016c6.338-3.66,16.616-3.66,22.956,0a13.774,13.774,0,0,1,2.728,2.016h2.025v4.081c0,2.133-1.584,4.267-4.753,6.1-6.339,3.66-16.617,3.66-22.956,0-3.169-1.83-4.754-3.964-4.754-6.1V71.86Z" transform="translate(-2.447 -1.201)" fill="#5e3930"/><path d="M164.43,65.149c6.339,3.66,6.339,9.593,0,13.253s-16.616,3.659-22.956,0-6.339-9.593,0-13.253,16.617-3.659,22.956,0" transform="translate(-2.447 -1.117)" fill="#cc8b7c"/><path d="M116.629,105.21c.927,1.022,1.143,3.557,1.2,6.439-.526,2.962-3.289,2.975-5.6,3.542-4.457,1.1-6.409,4.691-12.422,5.2-3.573.3-6.022-.255-6.969-2.454-.2-1.034.316-2.146,1.49-3.329,0,0,7.871-4.38,8.07-4.539a42.763,42.763,0,0,0,3.684-3.448c.046-.289,1.647-6.757,1.647-6.757l8.019-.694Z" transform="translate(-1.661 -1.775)"/><path d="M135.908,115.812c1.039,2.535.526,3.141.352,5.1a28.354,28.354,0,0,0-.949,3c-.349,1.787-.021,4.7-2.466,6.664-2.882,2.713-8.853,3.342-10.96.9a13.745,13.745,0,0,1,1.86-6.556l3.5-7.166.323-5.3,8.33-1.739Z" transform="translate(-2.181 -1.981)"/><path d="M162.57,72.521c-4.462,4.267-13.108,10.709-22.27,16.813.854,4.837-1.472,15.9-3.438,26.255-1.774,3.427-10.245,2.038-10.245,0,.441-12.893.625-28.927,1.811-32.721,5.9-8.417,11.707-15.986,17.013-19.4l9.111-5.044,8.019,6.448Z" transform="translate(-2.266 -1.046)" fill="#e35b00"/><path d="M106.38,105.4c0,1.414,4.721,2.28,8.227,1.564a4.821,4.821,0,0,0,3.446-2.042c1.962-10.348,2.181-23.1,1.325-27.928,4.551-2.629,12.241-4.014,18.485-5.707,3.806-1.036,7.082-2.191,8.775-3.8l-4.3-12.789-4.322-1.275-4.293.976c-14.522,5.528-26.076,8.924-28.187,18.525-1.185,3.795,1.285,19.592.847,32.48" transform="translate(-1.883 -0.956)" fill="#e35b00"/><g transform="translate(112.724 62.392)" opacity="0.5" style="mix-blend-mode:multiply;isolation:isolate"><g clip-path="url(#ah)"><path d="M114.778,107.143a4.824,4.824,0,0,0,3.446-2.042c1.962-10.348,2.181-23.1,1.325-27.927,4.551-2.63,12.241-4.015,18.486-5.708-.648-.757-2.162-2.958-3.318-7.938-4.631,5.508-11.165,8.8-18.864,10.757,2.56,10.289,1.574,21.384-1.075,32.858" transform="translate(-114.778 -63.529)" fill="#bd4c00"/></g></g><path d="M133.54,56.124l4.432,5.389,7.071,1.474,12.3,2.569,2.58.538,2.769,5.607A28.746,28.746,0,0,0,163.7,53.166l.328-4.263.339-4.452.11-1.434,1.394-18.306a69.932,69.932,0,0,0-14.721-12.032l-11.095.537c-3.944,2.839-4.751,5.259-5.927,12,0,0,.807,20.468.1,25.447-.04.309-.628,5.12-.687,5.459" transform="translate(-2.39 -0.227)" fill="#e35b00"/><path d="M136.5,26.1c2.889,3.681,8.476,6.168,15.443,8.043.906-7.626,3.972-13.6,9.632-13.731a76.967,76.967,0,0,0-10.522-8l-9.238-.216A24.454,24.454,0,0,0,136.5,26.1" transform="translate(-2.443 -0.218)" fill="#f2f2f2"/><path d="M155.184,50.8c2.347,1.239,5.458,1.037,8.3.107l1.49-6.482,2.073-17.9c-.392-1.942-2.416-3.276-3.166-4.063-2.967.394-5.758,2.461-7.021,7.37-2.442,9.485-2.467,16-1.68,20.972" transform="translate(-2.769 -0.402)" fill="#f2f2f2"/><path d="M150.651,10.9l2.338,4.108c1.871,4.988-4.063,9.141-7.714,8.537L141.587,16.9Z" transform="translate(-2.534 -0.195)" fill="#ffb294"/><g transform="translate(140.439 15.822)" opacity="0.5" style="mix-blend-mode:multiply;isolation:isolate"><g clip-path="url(#ai)"><path d="M150.307,16.11a14.03,14.03,0,0,1-1.208,6.815c-2.729,4.959-4.969,1.287-6.1-.313Z" transform="translate(-142.998 -16.11)" fill="#ffb294"/></g></g><path d="M150.348,14.769c-.381,3.388-1.4,6.62-5.127,8.986a2.569,2.569,0,0,1-3.21-.079l-3.039-4.143a11.139,11.139,0,0,1-2.566-4.414l4.622-9.528h7.178l3.4,4.693Z" transform="translate(-2.441 -0.1)" fill="#ffb294"/><path d="M152.113,13.892l-2.847.6a2.443,2.443,0,0,0-3.086-.231,10.917,10.917,0,0,1-6.858,2.164A4.969,4.969,0,0,1,134.444,11c.2-2.725,4.809-8.9,10.125-8.538,6.282.425,9.291,5.114,8.1,12.064Z" transform="translate(-2.406 -0.044)"/><path d="M151.251,10.933a1.2,1.2,0,0,1,1.248.444,1.7,1.7,0,0,1,.217.974,5.036,5.036,0,0,1-.5,2.09,2.276,2.276,0,0,1-.524.743,1.084,1.084,0,0,1-.842.282c-1.078-.154-.881-1.529-.98-2.291a2.068,2.068,0,0,1,1.377-2.242" transform="translate(-2.682 -0.195)" fill="#ffb294"/><g transform="translate(133.493 11.13)" opacity="0.5" style="mix-blend-mode:multiply;isolation:isolate"><g clip-path="url(#aj)"><path d="M147.519,12.947c-.231,4.388-2.545,8.609-7.032,8.765l-4.561-6.228,1.664-4.15Z" transform="translate(-135.926 -11.333)" fill="#ffb294"/></g></g><path d="M139.3,13.684a20.67,20.67,0,0,0,6.928-.356c-.048.065.481.029.432.093-2.718,3.5-5.864,8.847-12.559,6.9-5.905-1.718-2.929-4.857-.211-8.356.058-.074.122-.144.182-.218a10.277,10.277,0,0,0,5.229,1.935" transform="translate(-2.339 -0.21)" fill="#e35b00"/><path d="M146.717,13.21a12.087,12.087,0,0,0,5.724-5.056S152-.321,144.339.01c-12.531.541-10.211,11.529-10.211,11.529,2.03,2.913,6.871,2.77,12.589,1.672" transform="translate(-2.397 0)" fill="#cf3e00"/><path d="M125.429,69.577l-10.465-6.045-1.1,3.191,9.913,5.724Z" transform="translate(-2.038 -1.137)" fill="#e6ba8a"/><path d="M126.434,63.092l-10.465-6.045-1.1,3.191,9.913,5.724Z" transform="translate(-2.056 -1.021)" fill="#e6ba8a"/><path d="M98.259,110.111l-2.033-1.181-.951-19.747,2.033,1.181Z" transform="translate(-1.705 -1.596)" fill="#5e3930"/><path d="M97.2,88.3,95.171,87.12,94.9,81.5l2.033,1.181Z" transform="translate(-1.698 -1.459)" fill="#5e3930"/><path d="M71.875,102.769l-2.033-1.181L94.723,87.222,96.756,88.4Z" transform="translate(-1.25 -1.561)" fill="#f5d5b3"/><path d="M69.752,92.592l-2.033-1.181L94.239,76.1l2.033,1.181Z" transform="translate(-1.212 -1.362)" fill="#5e3930"/><path d="M68.114,127.259l-2.033-1.181L67.689,91.69l2.033,1.181Z" transform="translate(-1.183 -1.641)" fill="#bd8b55"/><path d="M96.755,76.525l-2.033-1.181a307.954,307.954,0,0,1,5.62-41.494l2.033,1.181a307.954,307.954,0,0,0-5.62,41.494" transform="translate(-1.695 -0.606)" fill="#bd8b55"/><path d="M103.678,34.654A236.011,236.011,0,0,0,98.835,76.58l1.711,30.955-2.771,1.6-.951-19.747L71.758,103.86l-.836,20.778-2.771,1.6L69.76,91.851,96.279,76.54a307.951,307.951,0,0,1,5.62-41.494ZM71.845,101.828,96.725,87.463l-.274-5.618L72.086,95.913Z" transform="translate(-1.22 -0.62)" fill="#e6ba8a"/><path d="M125.239,125.688l-2.033-1.181-.951-19.747,2.033,1.181Z" transform="translate(-2.188 -1.875)" fill="#bd8b55"/><path d="M124.184,103.878l-2.033-1.181-.274-5.618,2.033,1.181Z" transform="translate(-2.181 -1.737)" fill="#bd8b55"/><path d="M98.855,118.346l-2.033-1.181L121.7,102.8l2.033,1.181Z" transform="translate(-1.733 -1.84)" fill="#bd8b55"/><path d="M96.249,107.89l-28.53-16.48L94.239,76.1l28.668,16.559Z" transform="translate(-1.212 -1.362)" fill="#f5d5b3"/><path d="M95.094,142.836l-2.033-1.181,1.609-34.387,2.033,1.181Z" transform="translate(-1.666 -1.92)" fill="#bd8b55"/><path d="M129.457,50.6l-2.033-1.181,1.779-.391,2.033,1.181Z" transform="translate(-2.281 -0.877)" fill="#5e3930"/><path d="M123.735,92.1,121.7,90.92a307.957,307.957,0,0,1,5.62-41.494l2.033,1.182a307.96,307.96,0,0,0-5.62,41.493" transform="translate(-2.178 -0.885)" fill="#bd8b55"/><path d="M130.658,50.231a236.113,236.113,0,0,0-4.844,41.926l1.712,30.955-2.771,1.6-.951-19.747L98.738,119.437,97.9,140.215l-2.771,1.6,1.609-34.387,26.52-15.311a307.954,307.954,0,0,1,5.62-41.494ZM98.825,117.4l24.881-14.365-.274-5.618L99.066,111.49Z" transform="translate(-1.703 -0.899)" fill="#e6ba8a"/><path d="M96.249,108.169,67.719,91.69l.107,4.933L95.653,112.7Z" transform="translate(-1.212 -1.641)" fill="#bd8b55"/><path d="M128.974,50.322l-28.53-16.48,1.78-.391,28.529,16.48Z" transform="translate(-1.798 -0.599)" fill="#f5d5b3"/><path d="M128.956,50.329l-28.53-16.48-.955,7.715,27.371,15.81Z" transform="translate(-1.78 -0.606)" fill="#bd8b55"/><path d="M115.719,56.9l-14.365-8.3-.443,3.577,13.7,7.912Z" transform="translate(-1.806 -0.87)" fill="#e6ba8a"/><path d="M126.012,64.184,98.2,48.121,97.759,51.7l27.608,15.94Z" transform="translate(-1.75 -0.861)" fill="#bd8b55"/><path d="M114.714,63.381l-14.365-8.3-.443,3.577,13.7,7.912Z" transform="translate(-1.788 -0.986)" fill="#e6ba8a"/><path d="M125.007,70.67,97.2,54.606l-.443,3.577,27.608,15.94Z" transform="translate(-1.732 -0.977)" fill="#bd8b55"/><path d="M135.908,115.812c1.039,2.535.526,3.141.352,5.1a28.354,28.354,0,0,0-.949,3c-.349,1.787-.021,4.7-2.466,6.664-2.882,2.713-8.853,3.342-10.96.9a13.745,13.745,0,0,1,1.86-6.556l3.5-7.166.323-5.3,8.33-1.739Z" transform="translate(-2.181 -1.981)"/><path d="M126.613,115.588c0,1.534,4.75,2.689,7.888,1.733a3.726,3.726,0,0,0,2.361-1.733c1.962-10.358,4.293-21.414,3.435-26.255,9.164-6.106,17.809-12.539,22.271-16.813v-7.65l-8.018-6.444-.887.487-8.227,4.552c-.169.11-.348.23-.518.339-5.169,3.566-10.777,10.916-16.493,19.064-1.185,3.795-1.365,19.831-1.813,32.719" transform="translate(-2.266 -1.046)" fill="#e35b00"/><path d="M48.384,124.967l4.2-2.423,24.118,13.764-4.2,2.423Z" transform="translate(-0.866 -2.193)" fill="#f5d5b3"/><path d="M72.941,138.982l4.2-2.423v5.148l-4.2,2.424Z" transform="translate(-1.305 -2.444)" fill="#e6ba8a"/><path d="M48.384,125.011,72.5,138.776v5.149L48.384,130.161Z" transform="translate(-0.866 -2.237)" fill="#bd8b55"/><path d="M99.948,35.975l-.372,1.932,1.722,2.846a1.518,1.518,0,0,1,.175,1.152l-.121.485.152.216a1.014,1.014,0,0,1,.148.853l-.031.116a.7.7,0,0,1-.9.477.917.917,0,0,0-.126.276,1.021,1.021,0,0,1-1.158.643l-.379-.076a.8.8,0,0,1-1.276.371l-.8-.679L95.87,43.105l.228-3.257,1.564-2.832Z" transform="translate(-1.716 -0.644)" fill="#ffb294"/><g transform="translate(132.235 48.677)" opacity="0.5" style="mix-blend-mode:multiply;isolation:isolate"><g clip-path="url(#ak)"><path d="M134.645,117.162a3.726,3.726,0,0,0,2.361-1.733c1.961-10.358,4.293-21.414,3.435-26.255,9.164-6.106,17.809-12.539,22.271-16.813a28.742,28.742,0,0,0,1.006-18.535l.329-4.263-26.055,6.016c.438.7,3.466,5.149,3.466,5.149l3.276-2.162h7.68a4.9,4.9,0,0,1,1.394.19,5.285,5.285,0,0,1,3.865,5.787l-.01.09a13.852,13.852,0,0,1-.3,1.583C155.3,75.11,145.88,81.863,137.992,86.545c1.056,7.978-.687,18.824-3.347,30.617" transform="translate(-134.645 -49.564)" fill="#bd4c00"/></g></g><g transform="translate(151.564 32.853)" opacity="0.2" style="mix-blend-mode:multiply;isolation:isolate"><g clip-path="url(#al)"><path d="M163.026,46.377l-8.7,2.763c3.582-3.73.713-9.569,2.882-15.689Z" transform="translate(-154.326 -33.452)" fill="#bd4c00"/></g></g><path d="M166.1,24.909a110.79,110.79,0,0,1,7.024,17.512,7.738,7.738,0,0,1-4.586,9.552c-5.418,2.058-12.144,2.394-19.521,3.147-2-.5-2.9-4.545-1.457-6.367l13.4-4.615-3.349-6.486c-4.507-7.467,3.617-17.509,8.49-12.743" transform="translate(-2.628 -0.424)" fill="#f2f2f2"/><path d="M134.866,45.92a1.544,1.544,0,0,0,1.335-.43l.509-.562a.5.5,0,0,0,.153-.479l6.367,19.611a.5.5,0,0,1-.153.479l-.509.562a1.546,1.546,0,0,1-1.335.429.493.493,0,0,1-.4-.295l-6.367-19.611a.49.49,0,0,0,.4.3" transform="translate(-2.407 -0.796)" fill="#603813"/><path d="M134.621,45.139c-.3.333-.192.68.244.775a1.547,1.547,0,0,0,1.335-.43l.509-.562c.3-.333.193-.68-.244-.775a1.546,1.546,0,0,0-1.336.43Z" transform="translate(-2.406 -0.79)" fill="#c69c6d"/><path d="M132.969,45.287l-2.542-.555,1.021,3.14,2.541.554Z" transform="translate(-2.334 -0.801)" fill="#4f4f4f"/><path d="M137.918,39.72l-2.542-.555-4.949,5.468,2.542.555Z" transform="translate(-2.334 -0.701)" fill="#585858"/><path d="M133.015,45.2l1.02,3.139,6.137-6.78-.419-1.291-1.789-.535Z" transform="translate(-2.381 -0.711)" fill="#373737"/><path d="M133.578,41.9c-.3.333-.192.68.245.775a1.547,1.547,0,0,0,1.335-.43l.509-.562c.3-.333.192-.68-.245-.775a1.544,1.544,0,0,0-1.335.43Z" transform="translate(-2.388 -0.732)" fill="#c69c6d"/><path d="M136.249,51.156l.593,1.826c.441.47,2.551-.7,2.277-1.459l-.576-1.85,1.142-.659,1.389-.069c1.785.383,3.029.672,4.942.962l1.687-.535c1.492-.151,2.411,4.8.9,5.1l-3.643.933-3.071,2.374a6.711,6.711,0,0,1-3.8.772l-2.138-1.346-.771-1.681.011-2.039a1.79,1.79,0,0,1,1.058-2.332" transform="translate(-2.417 -0.876)" fill="#ffb294"/></g></g></g><g transform="matrix(0.966, -0.259, 0.259, 0.966, 226, 5193.66)"><g transform="translate(0 0)" clip-path="url(#am)"><path d="M55.335.029v10.6C32.36,12.74,16.876,24.178,12.011,47.136,8.5,63.7,14.012,77.894,27.158,89.215l5.723-6.088.3.211v21.694H11.6l8-7.977C8.38,87.531,1.974,75.771.37,61.512A53.968,53.968,0,0,1,6.91,28.591C18.42,7.846,39.672-.558,55.335.029" transform="translate(0 0)" fill="#00cb95"/></g></g><g transform="translate(364.887 4946.361) rotate(45)"><g transform="translate(0 0)" clip-path="url(#am)"><path d="M55.335.029v10.6C32.36,12.74,16.876,24.178,12.011,47.136,8.5,63.7,14.012,77.894,27.158,89.215l5.723-6.088.3.211v21.694H11.6l8-7.977C8.38,87.531,1.974,75.771.37,61.512A53.968,53.968,0,0,1,6.91,28.591C18.42,7.846,39.672-.558,55.335.029" transform="translate(0 0)" fill="#00cb95"/></g></g></g></svg>