<svg xmlns="http://www.w3.org/2000/svg" width="142" height="135" viewBox="0 0 142 135"><g transform="translate(-332.667 -1363)"><rect width="142" height="135" transform="translate(332.667 1363)" fill="#65ccc8"/><g transform="translate(111.667 97.258)"><rect width="95" height="95" transform="translate(240 1286.742)" fill="none"/><g transform="translate(251.027 1297.796)"><path d="M1476.216-418.339c-3.178,0-6.356-.027-9.534.019-.822.011-1.078-.212-1.061-1.051a10.664,10.664,0,0,1,1.634-5.693,1.8,1.8,0,0,0,.218-1.728,20.1,20.1,0,0,1-.2-10.709,9.229,9.229,0,0,1,10.128-6.639,9.353,9.353,0,0,1,8.194,9.089c.017,2.9.525,5.883-.783,8.676-.272.581.161.915.4,1.311a11.266,11.266,0,0,1,1.612,5.706c.02.857-.269,1.049-1.073,1.038C1482.573-418.364,1479.394-418.339,1476.216-418.339Zm7.112-14.055-.071,0c0-.93.046-1.863-.008-2.789a7.107,7.107,0,0,0-6.5-6.637,6.954,6.954,0,0,0-7.339,5.463,28.019,28.019,0,0,0-.124,7.31c.017.325.016,1,.453.941a3.92,3.92,0,0,0,1.537-.772c.543-.368.012-.671-.153-.966a6.436,6.436,0,0,1,4.944-9.644,1.625,1.625,0,0,1,.83.2c1.145.555,2.3,1.1,3.406,1.719a3.106,3.106,0,0,1,1.748,2.565c.089,1.839.368,3.742-.884,5.375-.18.235-.392.511-.021.737a5.38,5.38,0,0,0,1.539.8c.41.089.406-.5.433-.79C1483.228-430.052,1483.264-431.225,1483.328-432.395Zm-7.07,11.7c1.71,0,3.421.041,5.128-.016.94-.031,2.351.487,2.714-.259.47-.964-.432-2.1-1.031-3.051a12.5,12.5,0,0,0-1-1.257c-.434-.522-.737-.659-1.319,0-2.714,3.055-6.287,3.02-9.111-.047-.415-.451-.629-.6-1.113-.108a8.767,8.767,0,0,0-2.228,3.727c-.218.728-.085,1.049.781,1.031C1471.47-420.728,1473.864-420.695,1476.258-420.694Zm.007-9.4c2.777,0,3.478-.653,3.482-3.241a4.016,4.016,0,0,0-3.567-3.573,3.975,3.975,0,0,0-3.48,3.513C1472.7-430.715,1473.368-430.1,1476.264-430.1Zm2.88,2.947a7.5,7.5,0,0,0-5.844-.007C1474.959-424.811,1477.479-424.81,1479.144-427.15Z" transform="translate(-1415.076 444.219)" fill="#050505"/><path d="M1473.223-324.766c-2.592,0-5.188-.1-7.773.039-1.379.073-1.59-.413-1.545-1.626.092-2.49.01-4.986.04-7.479a1.7,1.7,0,0,0-.656-1.491,4.944,4.944,0,0,1-1.455-5.586c.64-2.15,1.431-4.254,2.084-6.4a1.154,1.154,0,0,1,1.318-.983c5.378.033,10.757.042,16.135-.007a1.231,1.231,0,0,1,1.4,1.067c.646,2.1,1.413,4.158,2.049,6.259a4.974,4.974,0,0,1-1.5,5.7,1.674,1.674,0,0,0-.589,1.522c.013,2.542-.047,5.086.031,7.626.032,1.051-.177,1.431-1.331,1.389C1478.7-324.833,1475.961-324.766,1473.223-324.766Zm0-2.354c1.955,0,3.914-.082,5.863.031,1.166.067,1.395-.352,1.324-1.4a26.366,26.366,0,0,1,0-3.955c.1-1.19-.137-1.9-1.485-2.021a2.645,2.645,0,0,1-1.4-.744c-.5-.462-.8-.451-1.326,0-1.1.939-2.594,1.541-3.8.862a4.84,4.84,0,0,0-5.3.053c-.52.3-.845.367-.826,1.035.047,1.709.065,3.422,0,5.13-.036.881.306,1.044,1.092,1.024C1469.312-327.153,1471.268-327.12,1473.223-327.12Zm8.891-14.1a6.759,6.759,0,0,0-.613-2.342c-.814-2.544-.833-2.538-3.534-2.357-.146.01-.293.006-.439.017-.209.016-.409.1-.378.336.177,1.351.357,2.7.577,4.048.063.38.453.292.727.294C1479.665-341.218,1480.877-341.223,1482.114-341.223Zm-17.7,0h2.063c2.449,0,2.449,0,2.82-2.48.333-2.228.332-2.249-1.919-2.207-.568.01-1.323-.344-1.614.55Zm9.043,0c.526-.155,1.717.293,1.734-.243a21.734,21.734,0,0,0-.605-4.306c-.012-.071-.244-.117-.38-.151-1.532-.388-2.179.039-2.414,1.584-.059.386-.136.77-.187,1.157C1471.348-341.22,1471.35-341.22,1473.457-341.22Zm-7.123,4.7a2.2,2.2,0,0,0,1.57-.672c.384-.385.813-.863.638-1.392-.2-.593-.842-.239-1.283-.275a14.926,14.926,0,0,0-2.045,0c-.4.023-.971-.244-1.176.232s.177.926.493,1.3A2.224,2.224,0,0,0,1466.333-336.522Zm7.037-2.375a4.454,4.454,0,0,0-.731.007c-.538.091-1.393-.327-1.556.284-.216.808.452,1.438,1.175,1.826a2.189,2.189,0,0,0,2.589-.286c.467-.381.929-.912.784-1.484-.178-.7-.91-.23-1.386-.336A4.1,4.1,0,0,0,1473.37-338.9Zm6.988.021a2.57,2.57,0,0,0-.583.007c-.561.134-1.5-.413-1.627.359-.144.851.6,1.5,1.419,1.829a2.144,2.144,0,0,0,2.208-.313c.517-.395,1.047-.943.866-1.575s-.924-.2-1.407-.3A4.524,4.524,0,0,0,1480.358-338.876Z" transform="translate(-1412.191 376.502)" fill="#050404"/><path d="M1306.818-364.261c3.866,0,7.733.033,11.6-.024.968-.014,1.208.26,1.2,1.212q-.058,11.744,0,23.488c.005.966-.259,1.208-1.211,1.2q-11.745-.058-23.49,0c-.966.005-1.208-.259-1.2-1.211q.058-11.744,0-23.489c-.005-.966.258-1.217,1.212-1.2C1298.89-364.23,1302.854-364.261,1306.818-364.261Zm-.15,23.5c3.036,0,6.074-.069,9.107.033,1.274.043,1.51-.378,1.5-1.558-.064-5.386-.028-10.772-.028-16.159,0-3.7,0-3.683-3.787-3.484-.692.036-.939.221-.921.925.041,1.615-.047,3.235.034,4.846.05,1-.208,1.363-1.275,1.324-2.3-.084-4.6-.026-6.9-.026-3.6,0-3.6,0-3.6-3.649,0-3.486,0-3.454-3.555-3.426-.883.007-1.168.212-1.162,1.139q.062,9.4-.005,18.8c-.009,1.1.383,1.269,1.348,1.251C1300.5-340.792,1303.583-340.757,1306.668-340.757Zm0-21.151c-3.648,0-3.608,0-3.549,3.6.016.961.369,1.115,1.208,1.121.861.006,1.318-.191,1.166-1.137-.147-.919.174-1.275,1.179-1.278s1.318.371,1.173,1.282c-.152.952.315,1.136,1.17,1.133s1.188-.174,1.2-1.124C1310.277-361.908,1310.315-361.908,1306.666-361.908Z" transform="translate(-1293.715 387.788)" fill="#030302"/><path d="M1469.69-250.941a9.429,9.429,0,0,1,9.51-9.336,9.428,9.428,0,0,1,9.3,9.4,9.427,9.427,0,0,1-9.436,9.41A9.428,9.428,0,0,1,1469.69-250.941Zm9.4,7.11a7.054,7.054,0,0,0,7.05-6.96,7.051,7.051,0,0,0-7.032-7.123,7.054,7.054,0,0,0-7.05,6.958A7.056,7.056,0,0,0,1479.085-243.83Z" transform="translate(-1417.948 314.361)" fill="#0a0a0a"/><path d="M1347.061-240.648c-4.6,0-9.195.031-13.792-.009a11.716,11.716,0,0,1-11.618-10.329c-.057-.463-.635-1.4.547-1.4.735,0,1.639-.5,1.812,1.051a9.27,9.27,0,0,0,9.541,8.323q13.865.028,27.73.006c1.328,0,1.829.734,1.411,1.981-.223.665-.741.356-1.1.358C1356.745-240.638,1351.9-240.647,1347.061-240.648Z" transform="translate(-1313.302 308.839)" fill="#060606"/><path d="M1347.332-428.208c4.793,0,9.586.016,14.379-.018.869-.006,1.277.1,1.28,1.148,0,1.083-.36,1.249-1.336,1.245-9.1-.037-18.194-.024-27.292-.021-5.72,0-9.324,3.025-10.156,8.641-.2,1.331-1.068.614-1.64.742-.852.191-.768-.426-.737-.988a11.761,11.761,0,0,1,11.416-10.732C1337.94-428.262,1342.636-428.206,1347.332-428.208Z" transform="translate(-1313.551 432.929)" fill="#060606"/><path d="M1358.676-412.232c4.746,0,9.493.026,14.239-.024.959-.01,1.214.25,1.222,1.207.008.986-.3,1.194-1.236,1.191-9.15-.034-18.3-.022-27.45-.019-3.131,0-4.54,1.049-5.393,4.067-.342,1.211-1.269.543-1.9.59-.862.064-.459-.7-.4-1.074a7.007,7.007,0,0,1,6.976-5.926C1349.379-412.262,1354.028-412.23,1358.676-412.232Z" transform="translate(-1324.704 421.654)" fill="#050505"/><path d="M1358.67-245.457c-4.648,0-9.3.031-13.945-.012a7.007,7.007,0,0,1-6.965-5.94c-.056-.38-.45-1.14.418-1.061.63.057,1.554-.624,1.892.6.823,2.991,2.266,4.053,5.4,4.054q13.652,0,27.3-.015c.909,0,1.376.051,1.38,1.2,0,1.176-.51,1.191-1.4,1.185C1368.064-245.473,1363.367-245.456,1358.67-245.457Z" transform="translate(-1324.712 308.947)" fill="#050505"/><path d="M1412.646-333.942c-2,0-4.012-.073-6.011.028-1.153.058-.924-.622-.974-1.284-.057-.75.058-1.133.985-1.121,4.057.053,8.115.069,12.171-.007,1.148-.021.924.622.974,1.285.057.75-.057,1.154-.986,1.121C1416.754-333.993,1414.7-333.942,1412.646-333.942Z" transform="translate(-1372.737 368.049)" fill="#050404"/><path d="M1412.76-316.3c2.053,0,4.108.055,6.158-.023,1.056-.04.884.585.891,1.208.007.641.132,1.208-.908,1.193q-6.158-.09-12.318,0c-1.054.015-.883-.586-.889-1.209-.006-.64-.138-1.235.908-1.193C1408.652-316.243,1410.707-316.3,1412.76-316.3Z" transform="translate(-1372.763 353.931)" fill="#050404"/><path d="M1324-267.109c.3,1.121-.407,1.059-1.211,1.13-1.085.095-1.088-.44-1.149-1.27-.079-1.085.443-1.094,1.275-1.146C1323.977-268.463,1324.186-268.009,1324-267.109Z" transform="translate(-1313.422 320.097)" fill="#060606"/><path d="M1338.867-268.329c1.019-.255,1.178.245,1.2,1.157.024.976-.289,1.194-1.222,1.205-.974.012-1.2-.29-1.2-1.225C1337.642-268.145,1337.883-268.567,1338.867-268.329Z" transform="translate(-1324.727 320.092)" fill="#060606"/><path d="M1338.817-377.965c-1.051.27-1.139-.3-1.179-1.174-.045-1.01.338-1.16,1.238-1.188,1.009-.032,1.167.34,1.186,1.241C1340.083-378.1,1339.773-377.744,1338.817-377.965Z" transform="translate(-1324.721 399.115)" fill="#060606"/><path d="M1324-379.144c.223.956-.133,1.265-1.121,1.245-.9-.019-1.273-.177-1.241-1.186.029-.9.177-1.283,1.188-1.238C1323.707-380.283,1324.274-380.2,1324-379.144Z" transform="translate(-1313.43 399.112)" fill="#060606"/><path d="M1390.167-316.042h1.768l.234.236q0,.884,0,1.769l-.235.234h-1.769l-.234-.236v-1.768Z" transform="translate(-1361.641 353.729)" fill="#030302"/><path d="M1391.934-333.791h-1.769l-.234-.236v-1.768l.236-.234h1.768l.234.236q0,.884,0,1.769Z" transform="translate(-1361.641 367.84)" fill="#030302"/><path d="M1396.743-328.978l.235-.234Q1397.05-328.9,1396.743-328.978Z" transform="translate(-1366.45 363.027)" fill="#0a0a0a"/><path d="M1390.135-316.076l-.236.234Q1389.827-316.15,1390.135-316.076Z" transform="translate(-1361.609 353.763)" fill="#0a0a0a"/><path d="M1396.982-315.839l-.234-.236Q1397.056-316.146,1396.982-315.839Z" transform="translate(-1366.454 353.762)" fill="#0a0a0a"/><path d="M1396.982-335.826l-.234-.236Q1397.056-336.133,1396.982-335.826Z" transform="translate(-1366.454 367.872)" fill="#0a0a0a"/><path d="M1396.743-308.991l.235-.234Q1397.05-308.918,1396.743-308.991Z" transform="translate(-1366.45 348.917)" fill="#0a0a0a"/><path d="M1390.135-336.063l-.236.234Q1389.827-336.137,1390.135-336.063Z" transform="translate(-1361.609 367.874)" fill="#0a0a0a"/><path d="M1389.9-329.218l.234.236Q1389.823-328.911,1389.9-329.218Z" transform="translate(-1361.607 363.031)" fill="#0a0a0a"/><path d="M1389.9-309.231l.234.236Q1389.823-308.924,1389.9-309.231Z" transform="translate(-1361.607 348.921)" fill="#0a0a0a"/><path d="M1491.695-426.695c-.063,1.17-.1,2.342-.21,3.508-.027.286-.024.879-.433.79a5.381,5.381,0,0,1-1.539-.8c-.371-.226-.159-.5.021-.737,1.252-1.633.973-3.535.884-5.375a3.107,3.107,0,0,0-1.748-2.565c-1.111-.618-2.262-1.165-3.406-1.719a1.624,1.624,0,0,0-.83-.2,6.436,6.436,0,0,0-4.944,9.644c.165.295.7.6.153.966a3.921,3.921,0,0,1-1.538.772c-.437.056-.435-.615-.453-.941a28.014,28.014,0,0,1,.125-7.31,6.954,6.954,0,0,1,7.339-5.463,7.107,7.107,0,0,1,6.5,6.637c.054.927.008,1.859.008,2.789Z" transform="translate(-1423.443 438.519)" fill="#616973"/><path d="M1482.463-376.324c-2.394,0-4.787-.033-7.18.017-.866.018-1-.3-.781-1.031a8.767,8.767,0,0,1,2.228-3.727c.484-.488.7-.343,1.113.108,2.824,3.067,6.4,3.1,9.111.047.582-.654.885-.517,1.319,0a12.458,12.458,0,0,1,1,1.257c.6.948,1.5,2.086,1.031,3.051-.364.746-1.774.227-2.714.259C1485.883-376.283,1484.172-376.324,1482.463-376.324Z" transform="translate(-1421.281 399.849)" fill="#b0d87c"/><path d="M1493.258-412.552c-2.9,0-3.565-.618-3.566-3.3a3.975,3.975,0,0,1,3.48-3.513,4.015,4.015,0,0,1,3.567,3.573C1496.736-413.2,1496.035-412.552,1493.258-412.552Z" transform="translate(-1432.07 426.674)" fill="#ebcbb0"/><path d="M1497.583-387.6c-1.665,2.34-4.186,2.339-5.844-.006A7.5,7.5,0,0,1,1497.583-387.6Z" transform="translate(-1433.515 404.665)" fill="#ebcbb0"/><path d="M1484.579-296.5c-1.955,0-3.91-.033-5.864.016-.786.02-1.128-.143-1.092-1.024.069-1.707.052-3.421,0-5.13-.019-.668.306-.738.826-1.035a4.84,4.84,0,0,1,5.3-.053c1.21.679,2.705.077,3.8-.862.524-.447.825-.459,1.326,0a2.646,2.646,0,0,0,1.4.744c1.348.119,1.584.83,1.485,2.021a26.4,26.4,0,0,0,0,3.955c.071,1.044-.157,1.463-1.324,1.4C1488.493-296.583,1486.534-296.5,1484.579-296.5Z" transform="translate(-1423.547 345.884)" fill="#e3e6ea"/><path d="M1519.6-335.682c-1.236,0-2.448.005-3.66,0-.274,0-.665.086-.727-.294-.22-1.345-.4-2.7-.577-4.048-.031-.236.169-.32.378-.336.146-.011.293-.008.439-.017,2.7-.181,2.72-.187,3.534,2.357A6.762,6.762,0,0,1,1519.6-335.682Z" transform="translate(-1449.677 370.961)" fill="#f77e6b"/><path d="M1471.326-335.626c.48-1.472.915-2.8,1.349-4.137.291-.894,1.046-.54,1.614-.55,2.252-.042,2.252-.021,1.919,2.207-.37,2.48-.37,2.48-2.82,2.48Z" transform="translate(-1419.104 370.907)" fill="#f77e6b"/><path d="M1497.36-335.829c-2.106,0-2.109,0-1.851-1.959.051-.387.128-.771.187-1.157.235-1.544.882-1.971,2.414-1.584.135.034.368.08.38.151a21.733,21.733,0,0,1,.605,4.306C1499.077-335.536,1497.886-335.984,1497.36-335.829Z" transform="translate(-1436.094 371.111)" fill="#f5e2a1"/><path d="M1472.2-314.036a2.219,2.219,0,0,1-1.8-.814c-.316-.37-.7-.816-.493-1.3s.772-.209,1.176-.232a14.929,14.929,0,0,1,2.045,0c.44.036,1.086-.318,1.282.275.175.529-.254,1.006-.638,1.392A2.2,2.2,0,0,1,1472.2-314.036Z" transform="translate(-1418.061 354.015)" fill="#ec674c"/><path d="M1496.2-316.439a4.1,4.1,0,0,1,.876.011c.476.106,1.208-.365,1.386.336.145.572-.318,1.1-.785,1.484a2.189,2.189,0,0,1-2.588.286c-.723-.388-1.392-1.018-1.175-1.826.163-.611,1.018-.193,1.556-.284A4.452,4.452,0,0,1,1496.2-316.439Z" transform="translate(-1435.02 354.044)" fill="#d19f6b"/><path d="M1520.2-316.387a4.516,4.516,0,0,1,.875.01c.483.1,1.224-.343,1.407.3s-.349,1.18-.866,1.575a2.144,2.144,0,0,1-2.208.313c-.824-.332-1.564-.977-1.419-1.829.131-.772,1.067-.226,1.628-.359A2.57,2.57,0,0,1,1520.2-316.387Z" transform="translate(-1452.037 354.014)" fill="#ec674c"/><path d="M1312.312-335.258c-3.085,0-6.171-.035-9.255.021-.965.017-1.357-.156-1.348-1.251q.082-9.4.005-18.8c-.006-.927.279-1.132,1.162-1.139,3.556-.028,3.555-.06,3.555,3.426,0,3.649,0,3.649,3.6,3.649,2.3,0,4.606-.058,6.9.026,1.067.039,1.326-.322,1.276-1.324-.081-1.612.007-3.231-.034-4.846-.018-.7.229-.889.921-.925,3.788-.2,3.787-.219,3.787,3.484,0,5.387-.036,10.773.028,16.159.014,1.181-.222,1.6-1.5,1.558C1318.387-335.327,1315.349-335.258,1312.312-335.258Z" transform="translate(-1299.359 382.289)" fill="#d19f6b"/><path d="M1329.208-356.2c3.649,0,3.611,0,3.552,3.6-.016.95-.361,1.12-1.2,1.124s-1.322-.181-1.17-1.133c.145-.91-.158-1.285-1.173-1.282s-1.326.359-1.179,1.278c.151.946-.3,1.143-1.167,1.137-.839-.006-1.192-.16-1.208-1.121C1325.6-356.2,1325.561-356.2,1329.208-356.2Z" transform="translate(-1316.257 382.08)" fill="#ae7644"/><path d="M1484.76-238.155a7.056,7.056,0,0,1-7.032-7.125,7.054,7.054,0,0,1,7.05-6.958,7.051,7.051,0,0,1,7.031,7.123A7.054,7.054,0,0,1,1484.76-238.155Zm-3.438-11.771a1.329,1.329,0,0,0-1.259,1.489c.013,2.145-.025,4.292.014,6.437.025,1.38.76,1.814,2.026,1.2,2.106-1.017,4.185-2.087,6.279-3.128.539-.268,1.063-.549,1.075-1.248.013-.78-.589-1.052-1.164-1.339q-3.008-1.5-6.013-3.006C1481.976-249.67,1481.656-249.786,1481.322-249.926Z" transform="translate(-1423.623 308.685)" fill="#e0e3e7"/><path d="M1486.918-244.375c.334.141.654.256.957.407q3.01,1.5,6.013,3.006c.575.287,1.177.56,1.164,1.339-.011.7-.536.98-1.075,1.248-2.093,1.041-4.173,2.111-6.279,3.128-1.266.612-2,.178-2.026-1.2-.039-2.145,0-4.291-.014-6.437A1.329,1.329,0,0,1,1486.918-244.375Zm1.15,6.222a9.881,9.881,0,0,0,3.009-1.58,14.36,14.36,0,0,0-3.009-1.34Z" transform="translate(-1429.22 303.134)" fill="#060606"/><path d="M1493.862-230.226v-2.92a14.361,14.361,0,0,1,3.009,1.34A9.885,9.885,0,0,1,1493.862-230.226Z" transform="translate(-1435.014 295.207)" fill="#f77e6b"/></g></g></g></svg>