<svg xmlns="http://www.w3.org/2000/svg" width="142" height="135" viewBox="0 0 142 135"><g transform="translate(-332.667 -1194)"><rect width="142" height="135" transform="translate(332.667 1194)" fill="#fa8b6a"/><g transform="translate(111.667 -72.742)"><rect width="95" height="95" transform="translate(240 1286.742)" fill="none"/><g transform="translate(252.91 1299.699)"><path d="M951.882-402.061q-9.854,0-19.707,0c-6.532-.008-10.942-4.39-10.952-10.887-.01-6.618-.049-13.236.036-19.853.017-1.335-.391-1.557-1.59-1.519-2.778.089-5.561.039-8.342.025-2.557-.013-3.912-1.35-3.915-3.9q-.015-14.53,0-29.06c0-2.539,1.362-3.874,3.93-3.877q11-.015,22.009,0,3.975,0,3.983,3.973.012,14.458,0,28.916c0,2.624-1.348,3.937-4.012,3.946-2.925.01-5.85.03-8.775-.016-.807-.012-1.044.21-1.04,1.03.033,7-.024,14,.04,21A7.867,7.867,0,0,0,931.3-404.4c13.761.07,27.523.024,41.285.045,1.311,0,1.61-.674,1.6-1.819s-.456-1.654-1.627-1.651c-7.336.02-14.673,0-22.009.018a3.844,3.844,0,0,1-2.908-.984,3.233,3.233,0,0,1-.853-3.683,3.266,3.266,0,0,1,3.2-2.24c2.445-.037,4.892-.056,7.336.005,1.332.033,1.936-.414,1.9-1.82-.067-2.588-.015-5.179-.023-7.768,0-.449.117-.871-.532-1.146a4.548,4.548,0,0,1-2.9-4.95c.094-1.186-.209-1.687-1.5-1.927a12.483,12.483,0,0,1-10-11.784c-.086-3.211-.048-6.426-.014-9.638a3.345,3.345,0,0,1,3.51-3.545c.886-.016,1.129-.231,1.105-1.119-.065-2.444-.025-4.891-.021-7.336.005-3.307,1.817-5.407,4.64-5.386s4.566,2.117,4.57,5.458c0,2.445.034,4.892-.018,7.337-.017.818.231,1.025,1.038,1.036,3.583.05,3.582.078,3.582-3.508,0-1.87-.023-3.741.008-5.61a4.592,4.592,0,0,1,4.588-4.712,4.585,4.585,0,0,1,4.606,4.693c.037,2.589.052,5.18-.011,7.768-.024.985.109,1.418,1.275,1.4a3.107,3.107,0,0,1,3.265,2.841c.114,3.972.445,7.976-.156,11.917a12.3,12.3,0,0,1-10.094,10.272c-.783.149-1.295.29-1.2,1.3.238,2.51-.5,4.559-3.051,5.568-.591.234-.367.719-.37,1.1-.02,2.637,0,5.275-.014,7.912-.013,2.564-1.347,3.915-3.882,3.931q-3.524.023-7.048,0c-.837-.007-1.659.1-1.684,1.1-.027,1.1.846,1.21,1.73,1.209,7.336-.007,14.672.006,22.008-.011,1.652,0,2.983.585,3.536,2.163a4.555,4.555,0,0,1-.6,4.751,3.774,3.774,0,0,1-3.115,1.164C965.6-402.071,958.739-402.061,951.882-402.061Zm5.281-35.688a5,5,0,0,1,5.728-.542,4.977,4.977,0,0,1,1.964,3.063c.1.855.465.819,1.128.691A10.144,10.144,0,0,0,974-443.081c.466-3.558.133-7.169.139-10.756,0-1-.759-1.19-1.618-1.183-1.042.008-.614.782-.635,1.244-.045.96.13,1.983-1.18,2.264-2.155-.016-4.31-.052-6.465-.04-1.066.006-1.575-.42-1.6-1.528-.047-1.934-.082-1.933-1.963-1.934a5.146,5.146,0,0,1-.861-.007c-1.4-.241-2.011.225-1.778,1.728.2,1.314-.521,1.789-1.789,1.746-1.675-.056-3.353-.013-5.03-.014-2.294,0-2.325-.049-2.394-2.311-.013-.423.371-1.137-.584-1.147-.772-.008-1.457.08-1.663.986a2.6,2.6,0,0,0-.03.573c0,3.115-.064,6.232.034,9.343a8.873,8.873,0,0,0,2.491,6.095,9.7,9.7,0,0,0,5.137,3.381c1.034.344,1.667.25,1.778-1.026A4.585,4.585,0,0,1,957.162-437.749Zm-25.589-31.026q-10.192-.025-20.384-.054c-1.021,0-1.479.478-1.477,1.491q.035,13.639.054,27.278c-.017.238-.047.476-.05.714-.034,2.736-.025,2.744,2.662,2.744q10.265,0,20.53,0c1.969,0,2.121-.153,2.121-2.137q0-13.425,0-26.849C935.031-468.972,935.031-468.972,931.573-468.775Zm19.578,7.974v3.448c0,3.6,0,3.571,3.586,3.509.824-.014,1.041-.245,1.032-1.052-.041-3.782,0-7.566-.026-11.348a2.324,2.324,0,0,0-2.287-2.576,2.314,2.314,0,0,0-2.3,2.561C951.133-464.44,951.153-462.621,951.151-460.8Zm18.413.17c0-1.819.012-3.639,0-5.459-.014-1.685-.891-2.721-2.279-2.732s-2.3,1.017-2.312,2.693c-.016,2.921-.005,5.842-.006,8.763,0,3.606,0,3.579,3.574,3.52.807-.013,1.071-.213,1.046-1.039C969.525-456.8,969.565-458.715,969.564-460.63Zm-11.5,28.44c0,.86-.045,1.722.01,2.578a2.287,2.287,0,0,0,2.34,2.219,2.256,2.256,0,0,0,2.225-2.183c.067-1.573.061-3.153.008-4.727a2.274,2.274,0,0,0-2.271-2.288,2.281,2.281,0,0,0-2.305,2.253C958.023-433.626,958.06-432.907,958.062-432.191Z" transform="translate(-907.404 471.138)" fill="#040405"/><path d="M915.474-434.35q-.025-13.639-.054-27.278c0-1.013.456-1.495,1.477-1.491q10.192.035,20.384.054,0,12.993,0,25.985c0,1.92-.791,2.726-2.674,2.734-2.009.009-4.019-.018-6.028-.029a3.723,3.723,0,0,0,.545-.657c2.276-4.531,4.556-9.061,6.789-13.613.516-1.051.028-1.762-1.173-1.8-1.387-.048-2.782-.079-4.165.009-1.036.065-1.425-.182-1.373-1.312.1-2.151.02-4.31.033-6.465,0-.7-.229-1.243-.947-1.408-.672-.154-1.075.257-1.353.815-2.223,4.451-4.461,8.894-6.657,13.359-.563,1.145-.1,1.852,1.188,1.892,1.436.044,2.877.076,4.309-.011.99-.06,1.192.32,1.166,1.221-.06,2.058,0,4.119-.03,6.179a2.059,2.059,0,0,0,.662,1.8Z" transform="translate(-913.112 465.428)" fill="#56a2fc"/><path d="M1059.637-398.586a5,5,0,0,0-5.728.542,59.484,59.484,0,0,1-8.087-.272,8.873,8.873,0,0,1-2.491-6.095c-.1-3.112-.032-6.228-.034-9.343a2.584,2.584,0,0,1,.03-.573c.206-.906.891-.994,1.663-.986.956.01.571.724.584,1.147.07,2.262.1,2.31,2.395,2.311,1.677,0,3.355-.042,5.031.014,1.268.042,1.992-.433,1.788-1.746-.233-1.5.38-1.969,1.779-1.728a5.145,5.145,0,0,0,.861.007c1.881,0,1.916,0,1.963,1.934.027,1.108.535,1.534,1.6,1.528,2.155-.012,4.31.024,6.465.04a15.587,15.587,0,0,1-.912,6.738A12.111,12.111,0,0,1,1059.637-398.586Z" transform="translate(-1004.151 431.433)" fill="#fdd8a9"/><path d="M928.577-434.414c2.01.011,4.019.038,6.028.029,1.883-.008,2.673-.814,2.674-2.734q.007-12.993,0-25.985c3.457-.2,3.458-.2,3.458,3.187q0,13.425,0,26.849c0,1.984-.152,2.136-2.121,2.137q-10.265,0-20.53,0c-2.687,0-2.7-.008-2.662-2.744,0-.238.032-.476.05-.714l12.1-.025Z" transform="translate(-913.106 465.467)" fill="#2487fc"/><path d="M1100.088-398.438a12.111,12.111,0,0,0,6.908-6.483,15.589,15.589,0,0,0,.912-6.738c1.311-.282,1.136-1.3,1.18-2.264.021-.462-.407-1.236.635-1.244.859-.007,1.619.181,1.618,1.183-.006,3.587.327,7.2-.139,10.756a10.145,10.145,0,0,1-8.022,8.544c-.663.128-1.03.164-1.128-.691A4.978,4.978,0,0,0,1100.088-398.438Z" transform="translate(-1044.602 431.284)" fill="#fbc175"/><path d="M1059.308-455.074c0-1.82-.019-3.64.007-5.459a2.314,2.314,0,0,1,2.3-2.561,2.324,2.324,0,0,1,2.287,2.576c.021,3.783-.015,7.566.026,11.348.009.807-.208,1.038-1.032,1.052-3.587.062-3.586.092-3.586-3.509Q1059.307-453.35,1059.308-455.074Z" transform="translate(-1015.56 465.41)" fill="#45f4fa"/><path d="M1111.88-454.9c0,1.916-.04,3.832.019,5.746.026.827-.239,1.026-1.046,1.039-3.574.058-3.574.086-3.574-3.52,0-2.921-.01-5.842.006-8.763.009-1.676.914-2.7,2.312-2.693s2.265,1.047,2.279,2.732C1111.892-458.543,1111.88-456.723,1111.88-454.9Z" transform="translate(-1049.72 465.41)" fill="#45f4fa"/><path d="M1083.276-346.772c0-.716-.038-1.435.008-2.149a2.281,2.281,0,0,1,2.305-2.252,2.274,2.274,0,0,1,2.271,2.288c.053,1.574.058,3.154-.008,4.727a2.256,2.256,0,0,1-2.224,2.183,2.287,2.287,0,0,1-2.34-2.219C1083.232-345.05,1083.277-345.912,1083.276-346.772Zm1.432,1.293h1.73q.293.063.231-.23v-1.73q.063-.293-.23-.231h-1.73q-.293-.064-.231.23v1.73Q1084.415-345.416,1084.708-345.479Z" transform="translate(-1032.619 385.719)" fill="#43eff5"/><path d="M1052.113-356.136a59.485,59.485,0,0,0,8.087.272,4.586,4.586,0,0,0-1.173,2.083c-.11,1.277-.743,1.37-1.778,1.026A9.7,9.7,0,0,1,1052.113-356.136Z" transform="translate(-1010.442 389.253)" fill="#f8c074"/><path d="M940.02-425.815h-1.007a2.059,2.059,0,0,1-.662-1.8c.032-2.059-.029-4.121.03-6.179.026-.9-.176-1.281-1.166-1.221-1.432.087-2.873.055-4.309.011-1.289-.04-1.751-.747-1.188-1.892,2.2-4.464,4.434-8.908,6.657-13.359.278-.557.682-.969,1.353-.815.717.165.951.7.947,1.408-.013,2.155.067,4.314-.033,6.465-.053,1.13.337,1.377,1.373,1.312,1.383-.087,2.778-.057,4.165-.009,1.2.042,1.689.752,1.173,1.8-2.233,4.552-4.514,9.082-6.789,13.613A3.728,3.728,0,0,1,940.02-425.815Zm-5.539-11.477c1.631,0,3.017.044,4.4-.013,1.281-.053,1.871.448,1.8,1.764-.056,1.055-.012,2.116-.012,3.174l.268.023,3.609-7.252c-1.62,0-3.005-.044-4.386.013-1.277.052-1.875-.442-1.8-1.761.056-1.055.011-2.116.011-3.175l-.263-.022Z" transform="translate(-924.549 456.868)" fill="#030405"/><path d="M1087.72-339.006h1.73l.23.231v1.73l-.231.23h-1.73l-.23-.231v-1.73Z" transform="translate(-1035.631 377.055)"/><path d="M1087.693-339.034l-.231.23Q1087.4-339.1,1087.693-339.034Z" transform="translate(-1035.604 377.083)" fill="#030e0e"/><path d="M1094.529-338.8l-.23-.231Q1094.592-339.1,1094.529-338.8Z" transform="translate(-1040.48 377.082)" fill="#030e0e"/><path d="M1087.462-332.2l.23.231Q1087.4-331.907,1087.462-332.2Z" transform="translate(-1035.603 372.209)" fill="#030e0e"/><path d="M1094.295-331.966l.231-.23Q1094.588-331.9,1094.295-331.966Z" transform="translate(-1040.477 372.206)" fill="#030e0e"/><path d="M941.893-421.082l3.623-7.249.263.022c0,1.059.045,2.119-.012,3.175-.071,1.319.527,1.813,1.8,1.761,1.381-.057,2.766-.013,4.386-.013l-3.609,7.252-.268-.023c0-1.058-.045-2.119.011-3.175.07-1.315-.52-1.817-1.8-1.764C944.91-421.038,943.524-421.082,941.893-421.082Z" transform="translate(-931.961 440.658)" fill="#f7d852"/></g></g></g></svg>